<svg xmlns="http://www.w3.org/2000/svg" width="780" height="480" viewBox="0 0 520 320"><rect width="100%" height="100%" fill="#fff"/><path d="M0 8.75c2.398-2.398 6.429-5.896 10.196-4.902.985.26 5.93 4.94 6.054 4.885 1.74-.763.515-3.958 1.705-5.438C20.703-.121 24.778 0 28.75 0m-15 25c1.088-2.176 4.57-5.645 7.53-3.692.747.494.307 2.347 1.2 2.404 1.306.083 1.206-2.365 2.114-3.306 2.468-2.557 4.23-4.156 7.906-4.156" fill="none" stroke="#000" stroke-width=".375" stroke-linecap="round" stroke-linejoin="round" pathLength="1" stroke-dasharray="1" stroke-dashoffset="1"><animate attributeName="stroke-dashoffset" to="0" dur="5.0s" fill="freeze" repeatCount="indefinite"/></path><path d="M46.25 6.25c-3.179 1.272-8.775 2.5-2.5 2.5M46.25 5c0-4.463 5.602-7.397 8.402-2.848 4.167 6.77-2.737 10.68-8.402 7.848m6.25 1.25c-5.625 11.25 17.724 11.61 21.143 3.857C77.67 5.973 61.29 7.3 57.5 10M60 8.75C61.57 5.612 68.09-2.233 72.558.058c2.541 1.303-1.863 5.99-.448 6.192.875.125 4.565-2.608 5.39-.833 1.11 2.387-3.698 4.965-5 5.833m-15 6.25c-1.467 1.467-1.85 3.051-2.5 5m0 1.25h-2.5M55 22.5V25m0-2.5l1.25 2.5m11.25-7.5v5h-1.25m1.25 0l1.25 2.5m-1.25-2.5v1.25" fill="none" stroke="#000" stroke-width=".375" stroke-linecap="round" stroke-linejoin="round" pathLength="1" stroke-dasharray="1" stroke-dashoffset="1"><animate attributeName="stroke-dashoffset" to="0" dur="5.0s" fill="freeze" repeatCount="indefinite"/></path><path d="M85 3.75c-5.03 3.354-5.434 5 1.25 5m-1.25-5C85 .909 89.023-.62 91.547.149 95.65 1.396 98.133 9.367 95 12.5m-8.75-3.75c0 9.778 5.222 15 15 15M95 10c4.253 4.253 6.25 6.331 6.25 12.5 1.158-.58 8.282-2.4 7.359 1.391-.454 1.863-4.761 1.109-6.109 1.109m-8.75-1.25C96.348 28.945 99.472 30 105 30m-10-2.5c0 2.637-.612 4.948-1.25 7.5-2.043 0-3.175.338-5 1.25M95 35l-2.5 2.5m2.5-1.25v1.25m7.5-8.75v7.5L100 37.5m2.5-1.25v1.25m0-2.5l1.25 2.5" fill="none" stroke="#000" stroke-width=".375" stroke-linecap="round" stroke-linejoin="round" pathLength="1" stroke-dasharray="1" stroke-dashoffset="1"><animate attributeName="stroke-dashoffset" to="0" dur="5.0s" fill="freeze" repeatCount="indefinite"/></path><path d="M125 5c-5.394 1.349-5.968 2.5 0 2.5m0-2.5c.581-1.162 1.412-4.108 2.433-4.865 6.04-4.487 6.546 6.906 5.067 9.865M125 7.5c0 9.276 2.617 11.592 11.25 13.75m-5-12.5c5.006 2.458 8.691 2.827 14.1 1.475 2.456-.614 9.22-3.103 11.598-1.475 2.67 1.827-1.699 6.166-2.81 7.113-5.3 4.51-12.59 6.32-19.138 4.137m2.5 0c0 4.77.297 6.052-3.75 8.75m3.75-1.25l1.25 2.5m0-2.5l3.75 2.5m6.25-8.75c0 4.476-.592 5.592-3.75 8.75m3.75-2.5L150 30m0-1.25h2.5M145 12.5h5" fill="none" stroke="#000" stroke-width=".375" stroke-linecap="round" stroke-linejoin="round" pathLength="1" stroke-dasharray="1" stroke-dashoffset="1"><animate attributeName="stroke-dashoffset" to="0" dur="5.0s" fill="freeze" repeatCount="indefinite"/></path><path d="M165 6.25c-4.637 2.319-5.779 2.5 0 2.5M165 5c3.508-10.523 14.558-.46 11.25 6.009-2.6 5.083-8.744-.998-10-3.509m1.25-3.75V5m8.75 5c2.351-.784 5-2.075 7.442-2.48 3.369-.56 17.025-.093 13.34 6.698-4.088 7.533-16.736 2.328-20.782-1.718m7.5-1.25c.5-3.385 3.12-5.83 5.868-7.662.773-.516 3.32-2.17 4.132-.514 1.415 2.886-1.012.598-1.012 2.938 0 2.53.742 5.933-3.988 6.488m-6.25 3.75c-.727 2.182-1.25 3.941-1.25 6.25m-1.25 0l-2.5 1.25m3.75-1.25l1.25 1.25m-1.25-1.25L180 25m8.75-7.5v3.75l-2.5 2.5m2.5-2.5l1.25 2.5m-1.25-2.5V25m-15-31.25V-5" fill="none" stroke="#000" stroke-width=".375" stroke-linecap="round" stroke-linejoin="round" pathLength="1" stroke-dasharray="1" stroke-dashoffset="1"><animate attributeName="stroke-dashoffset" to="0" dur="5.0s" fill="freeze" repeatCount="indefinite"/></path><path d="M205 5c-5.69 3.793-5.441 5 1.25 5M205 5c0-10.183 15.2-2.7 8.75 3.75m-8.75 0c0 9.304 11.94 14.31 18.75 7.5M215 8.75c2.441-1.22 4.745-2.266 7.511-2.5 1.861-.157 3.469.026 5.292.388 1.168.232 4.035.935 5.044 1.66 10.808 7.776-9.324 21.247-15.347 9.202m6.25-2.5c1.9 0 6.912-.93 8.502 0 2.113 1.235-6.599 3.587-7.252 3.75m-7.5 2.5v5m-1.25 0c-1.75 0-2.544 1.294-3.75 2.5m3.75-2.5L217.5 30m-1.25-3.75l2.5 2.5m8.75-6.25v3.75l-2.5 2.5m2.5-2.5l1.25 2.5m0-2.5l2.5 1.25" fill="none" stroke="#000" stroke-width=".375" stroke-linecap="round" stroke-linejoin="round" pathLength="1" stroke-dasharray="1" stroke-dashoffset="1"><animate attributeName="stroke-dashoffset" to="0" dur="5.0s" fill="freeze" repeatCount="indefinite"/></path><path d="M245 6.25c-6.613 0-3.788 2.5 1.25 2.5M245 6.25c.06-4.965 7.632-9.038 11.365-4.77 2.213 2.53.786 5.816-.115 8.52m-10-2.5c0 11.052 3.784 20.511 16.953 20 5.451-.212 12.777-5.538 9.297-11.25m-15-5c4.92 2.46 8.93 3.248 13.86-.11.772-.526 6.899-7.527 7.39-7.14 3.184 2.505-3.402 11.79-5 13.5m-16.25 5l-2.5 5m-1.25 1.25h-2.5M255 27.5V30m0-2.5l1.25 1.25m8.75-5v3.75m0 1.25L263.75 30m2.5-2.5l1.25 1.25m-1.25-1.25l1.25 1.25" fill="none" stroke="#000" stroke-width=".375" stroke-linecap="round" stroke-linejoin="round" pathLength="1" stroke-dasharray="1" stroke-dashoffset="1"><animate attributeName="stroke-dashoffset" to="0" dur="5.0s" fill="freeze" repeatCount="indefinite"/></path><path d="M286.25 5c-6.765 0-7.482 5 0 5m0-6.25c5.121-5.121 10.12-4.641 12.5 2.5 2.792 0 7.276-.79 9.938 0 2.576.764 12.021 8.31 9.276 11.643-1.796 2.18-7.115 2.107-9.533 2.107-8.228 0-19.565-1.628-20.931-11.25m10 7.5c0 2.789-.368 4.855-1.25 7.5l-3.75 2.5m3.75-2.5v2.5m0-2.5l3.75 2.5m6.25-7.5v7.5L305 27.5m1.25-1.25l1.25 1.25m0-1.25l2.5 1.25m-1.25-1.25H310" fill="none" stroke="#000" stroke-width=".375" stroke-linecap="round" stroke-linejoin="round" pathLength="1" stroke-dasharray="1" stroke-dashoffset="1"><animate attributeName="stroke-dashoffset" to="0" dur="5.0s" fill="freeze" repeatCount="indefinite"/></path><path d="M325 6.25c-3.225 1.612-6.69 2.5-1.25 2.5m0-3.75c2.667-8.002 8.75-4.806 8.75 2.5 7.658.105 6.541 4.747 11.877 8.127 4.689 2.97 7.23-4.26 10.33-2.98 2.618 1.08-1.6 6.468-1.737 6.647-3.166 4.164-8.382 6.21-13.611 5.706-8.38-.807-12.044-9.304-14.359-16.25m13.75 13.75v5l-1.25 1.25m1.25-1.25l1.25 1.25m-1.25-1.25v1.25m8.75-6.25v3.75l-1.25 2.5m1.25-2.5l1.25 1.25m-1.25 0v1.25" fill="none" stroke="#000" stroke-width=".375" stroke-linecap="round" stroke-linejoin="round" pathLength="1" stroke-dasharray="1" stroke-dashoffset="1"><animate attributeName="stroke-dashoffset" to="0" dur="5.0s" fill="freeze" repeatCount="indefinite"/></path><path d="M365 5c-3.776 1.888-6.216 2.095-1.25 3.75m1.25-5c7.17-14.34 18.836 13.362 3.158 8.136-2.043-.681-2.9-1.628-4.408-3.136m3.75 3.75c-5.059 9.703 13.017 14.887 19.509 9.91 5.016-3.845 5.07-11.262-2.013-12.41-2.717-.44-5.99 0-8.746 0m1.25 0c.171-1.294 4.625-11.994 7.5-7.047.738 1.27-3.127 4.542-1.746 4.044 1.536-.554 6.89-5.082 8.926-3.247 2.223 2.004-3.485 3.227-3.074 3.75.577.735 5.18-.852 5.894.594 1.566 3.17-3.055 3.223-3.92 4.046-.942.895 3.079 1.67 2.62 2.885-.62 1.64-5.272 1.225-6.2 1.225m-12.5 7.5c-1.154 1.154-1.773 2.295-2.5 3.75m0 1.25L370 30m2.5-1.25V30m0-1.25l1.25 1.25m10-7.5l1.25 5-2.5 1.25m1.25-1.25l1.25 1.25m-1.25-1.25l1.25 1.25" fill="none" stroke="#000" stroke-width=".375" stroke-linecap="round" stroke-linejoin="round" pathLength="1" stroke-dasharray="1" stroke-dashoffset="1"><animate attributeName="stroke-dashoffset" to="0" dur="5.0s" fill="freeze" repeatCount="indefinite"/></path><path d="M406.25 6.25c-.982.49-5.921 2.113-6.25 2.836-1.028 2.258 7.57 2.164 8.75 2.164m-2.5-3.75c0-6.24 10.756-11.846 13.395-4.46 2.805 7.85-5.57 15.26-12.145 9.46m5 2.5c-.958 3.507-1.704 4.76.22 7.94 1.735 2.868 2.996 4.556 6.194 5.865 13.194 5.4 20.776-11.004 6.856-15.488-2.837-.913-2.823-.71-5.77-.817m-1.25 5c1.247.624 3.592 2.436 4.96 2.48 2.961.095 4.477-3.043 2.54-4.98m-10 11.25v7.5l-2.5 2.5m3.75-2.5v2.5m0-2.5l2.5 2.5m5-7.5l1.25 6.25-2.5 2.5m2.5-2.5v2.5m0-3.75l3.75 2.5" fill="none" stroke="#000" stroke-width=".375" stroke-linecap="round" stroke-linejoin="round" pathLength="1" stroke-dasharray="1" stroke-dashoffset="1"><animate attributeName="stroke-dashoffset" to="0" dur="5.0s" fill="freeze" repeatCount="indefinite"/></path><path d="M440 3.75c1.54-4.263 7.753-5.073 10.868-1.632.423.468 2.314 5.232 3.223 4.87 1.39-.553 1.49-2.65 2.588-3.667 5.289-4.904 11.9-1.164 14.571 4.179m-10 15c.18-2.302 4.055-5.334 5.944-2.806.404.54 1.051 3.701 1.497 3.88.176.07 1.196-3.415 1.363-3.6 2.476-2.756 6.664-.756 8.696 1.276M440 12.5c3.656-3.656 6.16 3.188 7.695 2.11 3.572-2.508 6.269-7.933 9.805-.86" fill="none" stroke="#000" stroke-width=".375" stroke-linecap="round" stroke-linejoin="round" pathLength="1" stroke-dasharray="1" stroke-dashoffset="1"><animate attributeName="stroke-dashoffset" to="0" dur="5.0s" fill="freeze" repeatCount="indefinite"/></path><path d="M480 3.75c3.597-2.94 7.707-3.682 11.242-.008 1.16 1.206.927 3.528 2.323 4.452.514.34 6.99-4.742 7.922-5.188 6.285-3.004 13.655-2.31 19.763.744" fill="none" stroke="#000" stroke-width=".375" stroke-linecap="round" stroke-linejoin="round" pathLength="1" stroke-dasharray="1" stroke-dashoffset="1"><animate attributeName="stroke-dashoffset" to="0" dur="5.0s" fill="freeze" repeatCount="indefinite"/></path><path d="M15 48.75c0 7.007-1.825 11.173-1.25 17.5.16 1.769 1.416 4.458 2.5 5 1.79.895 4.39-1.953 5-5 .937-4.685-1.004-16.25-5-16.25m0 0c0-2.925-.251-2.748 1.25-5 .766-1.15 3.163-1.837 3.75-1.25 1.472 1.472-.678 5-3.75 5m-2.5 2.5c0-3.198.287-4.94-1.25-7.5-1.447-2.411-5.583-4.709-7.5-3.75C2.976 41.637 2.8 48.017 5 48.75c2.765.922 5.098-1.152 2.5-3.75m11.25 7.5c.745-4.687 1.477-7.192 5.498-8.916 4.19-1.795 8.919-.566 9.502 2.336.373 1.853-1.691 5.115-3.535 6.365-1.041.706-3.048.162-3.535 1.322-.377.898 1.953.022 2.92.143 1.242.155 2.527.225 3.693.68 4.267 1.67 6.493 5.102 4.649 8.437-2.667 4.82-11.173 6.016-16.692 2.133M15 50c-4.674-5.663-15.178.552-12.073 5.427C3.84 56.86 6.88 57.82 8.72 57.5c.815-.142 2.79-.737 2.143-1.25-2.073-1.641-8.522 3.004-8.362 7.452.204 5.677 7.448 8.815 15 6.298m8.75-18.75c-2.012 0-3.09 1.91-2.5 2.5 1.763 1.763 2.335-1.415 1.25-2.5m0 12.5c-1.89 0-1.806 1.597 0 2.5 2.086 1.043 3.326-.424 1.25-2.5M11.25 50c-1.3 0-2.306 2.5 0 2.5.747 0 1.25-.955 1.25-2.5m1.25 11.25c-1.135 0-2.014 4.514 0 2.5.59-.59 0-1.667 0-2.5m17.5-12.5c-1.502 1.502 0 3.77 0 1.25" fill="none" stroke="#000" stroke-width=".375" stroke-linecap="round" stroke-linejoin="round" pathLength="1" stroke-dasharray="1" stroke-dashoffset="1"><animate attributeName="stroke-dashoffset" to="0" dur="5.0s" fill="freeze" repeatCount="indefinite"/></path><path d="M56.25 51.25c-1.691-3.175-3.33-6.847-6.36-8.18-4.21-1.852-9.453 1.872-9.89 6.902-.225 2.585.581 4.424 2.48 6.257.845.818 2.29.977 2.933 1.963 1.092 1.675-.239 3.49-1.528 5.98-1.174 2.268-2.142 4.513-1.385 6.642 1.16 3.264 5.722 5.222 8.685 3.594 1.632-.898 2.877-3.783 3.815-5.658M57.5 50c1.512-3.024 2.903-6.318 5.68-7.84 3.224-1.766 7.47-.367 8.07 2.378 1.098 5.019-6.925 7.946-7.5 13.815-.371 3.791 3.13 4.307 3.75 8.636.462 3.228-2.878 6.922-5.686 6.418-2.07-.372-3.06-2.425-4.314-4.657M56.25 47.5c-2.576 0-2.834 3.825-2.5 7.5.412 4.535 1.626 15.376 3.75 17.5 1.318 1.318 2.5-3.137 2.5-5 0-6.852-1.144-11.97-2.5-18.75m-1.25 0c-.833-1.667-1.541-3.402-2.5-5-.303-.505-.833-.833-1.25-1.25m3.75 6.25l1.25-6.25" fill="none" stroke="#000" stroke-width=".375" stroke-linecap="round" stroke-linejoin="round" pathLength="1" stroke-dasharray="1" stroke-dashoffset="1"><animate attributeName="stroke-dashoffset" to="0" dur="5.0s" fill="freeze" repeatCount="indefinite"/></path><path d="M96.25 47.5c-2.314 4.628-3.707 10.17-2.5 15 .269 1.075 2.194 1.769 3.75 1.25 5.349-1.783 3.87-16.25-1.25-16.25m0 0c0-4.045.844-2.063-1.25-6.25m2.5 5l2.5-5m0 6.25c2.075-3.47 4.253-5.976 7.904-7.077 4.224-1.273 8.286.642 8.346 3.793.026 1.389-2.227 5.266-3.342 6.205-.933.786-2.574.637-3.272 1.636-.35.501 1.215.248 1.754.536 1.075.575 2.145 1.206 3.044 2.03 1.595 1.462 3.486 4.533 3.066 6.292-.41 1.717-3.567 3.487-5.617 4.29-5.178 2.032-9.04 1.301-13.133-2.705m-5-15c-2.925-5.486-9.022-6.937-12.374-3.813-2.21 2.06-1.86 6.226.687 7.97 1.413.967 5.59-.568 5.027 1.048-1.04 2.981-6.133 3.728-6.814 5.63-1.622 4.536 6.765 9.624 12.224 4.165" fill="none" stroke="#000" stroke-width=".375" stroke-linecap="round" stroke-linejoin="round" pathLength="1" stroke-dasharray="1" stroke-dashoffset="1"><animate attributeName="stroke-dashoffset" to="0" dur="5.0s" fill="freeze" repeatCount="indefinite"/></path><path d="M136.25 51.25c-2.112-3.11-5.279-8.005-8.563-9.281-4.323-1.68-9.223 4.084-7.458 11.218 3.902 15.77-.998-8.712 4.782 6.824.777 2.088-2.269 3.842-3.217 5.858-1.245 2.645-2.02 5.739-.885 8.11 1.881 3.926 7.18 4.79 10.697 1.617C134.643 72.856 135 68.3 135 63.75M136.25 50c-1.5 7.5-3.315 19.185 1.25 23.75 1.718 1.718 3.406-3.845 3.75-6.25.719-5.032-.287-12.787-3.75-16.25m2.5 5c1.775-5.326 6.727-9.138 9.982-7.5 2.56 1.287 3.095 6.062 1.543 9.45-1.064 2.323-6.428 3.475-5.142 5.683 2.703 4.642 5.289 3.934 4.867 8.495-.669 7.238-7.969 8.168-10.801 1.02-.42-1.062-.3-2.265-.449-3.398m-2.5-18.75c-1.932-3.864-1.58-7.17 1.25-10M137.5 50c1.535-4.604.122-2.622 3.75-6.25" fill="none" stroke="#000" stroke-width=".375" stroke-linecap="round" stroke-linejoin="round" pathLength="1" stroke-dasharray="1" stroke-dashoffset="1"><animate attributeName="stroke-dashoffset" to="0" dur="5.0s" fill="freeze" repeatCount="indefinite"/></path><path d="M176.25 46.25c0 2.917-.362 5.856 0 8.75.118.945 2.491 3.75 2.5 3.75 5.55 0 2.792-13.75-2.5-13.75m0 0c-.976-1.951-1.25-.538-1.25-3.75m3.75 5c0-3.018-1.818-1.932 1.25-5m0 6.25c3.243-4.864 4.623-6.828 10-7.5 2.067-.258 4.777-1.473 6.25 0 1.872 1.872-9.882 7.162-7.5 8.75 1.096.73 2.571.66 3.75 1.25 2.999 1.5 2.851 5.3 0 6.25-.821.274-5.651-.788-7.5-1.25l-5-1.25M173.75 45c-3.395-3.395-5.497-4.25-10-5-3.456-.576-5.984 1.783-5 3.75 1.212 2.424 5.34.795 8.75 2.5 1.966.983-5 5.636-5 7.5 0 .01 2.816 2.313 3.75 2.5 3.742.748 5.737-.737 8.75-3.75" fill="none" stroke="#000" stroke-width=".375" stroke-linecap="round" stroke-linejoin="round" pathLength="1" stroke-dasharray="1" stroke-dashoffset="1"><animate attributeName="stroke-dashoffset" to="0" dur="5.0s" fill="freeze" repeatCount="indefinite"/></path><path d="M217.5 48.75c-4.855-6.866-11.58-6.044-14.324-.102-1.276 2.763-.898 4.327 1.057 6.835 1.48 1.899 6.558 2.292 5.638 4.517-.476 1.15-2.537-.293-3.732.055-2.144.627-4.34 2.815-5.294 4.911-2.355 5.167.427 9.73 6.381 10.034 3.944.202 6.83-1.454 10.274-3.75m1.25-25c-2.407 4.814-2 14.49-2.5 20-.207 2.281-.533 4.108 1.25 5 1.955.978 5.788-3.34 6.25-7.5.73-6.564.244-14.878-5-17.5m0 0c0-3.132-1.107-3.464-2.5-6.25m5 6.25c0-2.514 1.873-4.373 3.75-6.25m-2.5 8.75c.424-1.253.375-2.787 1.27-3.76 5.868-6.375 15.299-.918 13.439 5.447-1.163 3.98-8.885 7.458-13.413 8.298-1.204.223 2.237-1.129 3.456-1.235 1.32-.115 2.715.062 3.929.59 3.914 1.705 6.458 7.023 4.61 9.869-2.477 3.815-9.579 4.21-14.541.791" fill="none" stroke="#000" stroke-width=".375" stroke-linecap="round" stroke-linejoin="round" pathLength="1" stroke-dasharray="1" stroke-dashoffset="1"><animate attributeName="stroke-dashoffset" to="0" dur="5.0s" fill="freeze" repeatCount="indefinite"/></path><path d="M257.5 51.25c0-2.709-2.205-2.908-3.75 2.5-1.801 6.304-1.82 8.052-1.25 13.75.177 1.773 1.41 4.455 2.5 5 1.03.515 3.18-3.003 3.75-5 1.737-6.08 1.564-11.245 0-17.5m0-1.25c0-5.035 3.527-8.75 8.75-8.75m-11.25 8.75c0-4.521-3.173-6.586-7.5-8.75m10 11.25c3.351-3.351 3.27-3.831 7.525-5.842 3.645-1.722 6.943-2.282 8.882-.094 2.562 2.892.042 7.969-5.631 11.173-2.409 1.36-7.961 3.356-8.276.608-.155-1.352 2.163-1.864 3.504-2.095 3.721-.642 11.281 2.858 12.645 6.15 1.555 3.75-2.484 9.2-7.563 10.807-5.026 1.59-8.386-.095-12.336-4.457M255 48.75c-6.128-6.58-15.945-.41-13.75 6.46 1.283 4.017 11.277 4.958 12.401 1.09.261-.9-1.838-.612-2.767-.492-3.229.418-7.127 3.294-8.64 6.211-1.927 3.714-.55 7.423 3.185 8.82 2.627.983 4.155.133 7.071-.839" fill="none" stroke="#000" stroke-width=".375" stroke-linecap="round" stroke-linejoin="round" pathLength="1" stroke-dasharray="1" stroke-dashoffset="1"><animate attributeName="stroke-dashoffset" to="0" dur="5.0s" fill="freeze" repeatCount="indefinite"/></path><path d="M297.5 50c-.417 1.25-1.119 2.439-1.25 3.75-.29 2.902 0 5.833 0 8.75 0 1.667-.236 3.35 0 5 .932 6.527 5.637 6.128 6.25 0 .29-2.902.29-5.848 0-8.75-.289-2.89-2.053-4.954-3.75-7.5m2.5 2.5c1.273-5.697 4.867-7.992 10.396-10.132 2.964-1.148 5.398-1.616 7.144.172 2.188 2.241-.23 5.53-4.359 8.824-1.576 1.258-6.003 2.425-4.626 3.9.894.957 2.62.411 3.812.953 2.37 1.075 4.64 3.354 4.836 5.69.525 6.217-6.87 11.427-13.453 6.843m-8.75-18.75c-1.281-3.844-3.608-6.205-7.033-6.25-4.823-.063-9.665 6.225-7.967 9.564 1.235 2.428 6.012 1.5 9.615 2.936.834.332-1.824.01-2.68.282-1.116.356-2.211.864-3.145 1.573-2.268 1.722-2.882 3.157-2.54 5.94.685 5.571 6.724 7.432 13.75 4.705M300 47.5c0-4.862 1.647-6.647 5-10m-6.25 11.25l-2.5-7.5" fill="none" stroke="#000" stroke-width=".375" stroke-linecap="round" stroke-linejoin="round" pathLength="1" stroke-dasharray="1" stroke-dashoffset="1"><animate attributeName="stroke-dashoffset" to="0" dur="5.0s" fill="freeze" repeatCount="indefinite"/></path><path d="M336.25 48.75c0 3.282-3.095 11.905 0 15 .249.249 1.806-.208 2.5-1.25 2.419-3.628 3.124-8.133 2.5-12.5-.436-3.054-2.67-4.83-5-2.5m2.5-1.25c-1.688-3.375-4.416-7.167-6.25-6.25-3.744 1.872-.6 5.6 1.25 3.75m5 1.25c0-2.49.72-5.657 2.5-6.25 2.101-.7 5.11 3.75 1.25 3.75m-5 7.5h1.25m2.5-1.25c2.274-4.549 9.814-10.062 13.75-8.75 1.75.584 3.155 4.284 2.5 6.25-1.778 5.335-8.775 6.675-15 8.75m0 1.25c7.042-3.521 13.978 4.772 10 8.75-3.787 3.787-9.267 3.233-13.75-1.25m-5-13.75c-1.983-1.983-3.742-4.373-6.25-5-7.269-1.817-11.1 5.15-7.5 8.75 2.938 2.938 6.835 3.75 11.25 3.75m-1.25 0c-7.064 0-9.083 9.889-5 11.25 3.436 1.145 5.713-.713 8.75-3.75" fill="none" stroke="#000" stroke-width=".375" stroke-linecap="round" stroke-linejoin="round" pathLength="1" stroke-dasharray="1" stroke-dashoffset="1"><animate attributeName="stroke-dashoffset" to="0" dur="5.0s" fill="freeze" repeatCount="indefinite"/></path><path d="M377.5 48.75c-3.01 0-3.017 9.333-1.25 13.75 1.382 3.454 4.037 3.565 5-1.25.992-4.962-.187-10.187-3.75-13.75m-1.25 0c0-5.936-3.847-7.403-6.25-5m8.75 5c0-3.858.942-7.5 3.75-7.5M380 51.25c.944-4.542 4.889-8.205 9.068-8.75 2.652-.346 4.567.89 4.682 3.129.093 1.816-1.83 4.069-3.524 5.395-.733.574-3.305 1.066-2.428 1.377 1.076.382 2.11-1.06 3.252-1.084 3.583-.074 6.914 3.044 6.412 6.258-.98 6.278-9.095 9.397-16.212 4.925m-7.5-12.5c-1.865-2.798-3.731-4.966-6.772-5.886-3.215-.973-6.89-.017-7.839 2.608-.66 1.824.193 3.985 1.762 5.429.754.694 1.7 1.197 2.675 1.512.722.233 3.028.007 2.274.087-7.504.793-7.35 9.344.456 11.25 2.888.705 5.784-1.045 8.694-2.5" fill="none" stroke="#000" stroke-width=".375" stroke-linecap="round" stroke-linejoin="round" pathLength="1" stroke-dasharray="1" stroke-dashoffset="1"><animate attributeName="stroke-dashoffset" to="0" dur="5.0s" fill="freeze" repeatCount="indefinite"/></path><path d="M417.5 51.25c-.417 1.25-1.119 2.439-1.25 3.75-.29 2.902 0 5.833 0 8.75 0 2.864 1.593 4.204 2.5 3.75 4.42-2.21 3.811-16.25-1.25-16.25m0 0c-1.727-1.727-1.828-2.015-1.25-3.75.775-2.325 3.75-1.92 3.75 0 0 2.132.725 3.75-1.25 3.75m-2.5-3.75l-2.5-3.75M420 47.5c0-3.018-1.818-1.932 1.25-5m0-2.5v1.25m-10 0v1.25m7.5 8.75c3.636-2.424 7.248-6.106 11.413-7.138 2.894-.716 4.905.858 4.837 1.524-.16 1.562-3.294 3.044-4.69 4.574-.875.959 4.91 3.579 5.563 4.413 3.45 4.408-.25 10.643-6.948 11.569-3.61.499-6.134-.901-8.925-3.692m-6.25-11.25c-3.009-3.009-4.326-5.318-8.177-5-3.825.315-7.541 3.783-6.823 6.068.709 2.255 5.809.978 9.346 2.682.64.309-1.35.45-2.026.67-1.077.35-2.223.531-3.236 1.038-3.424 1.713-4.024 5.495-2.07 8.572 2.626 4.13 9.55 3.75 15.486.97" fill="none" stroke="#000" stroke-width=".375" stroke-linecap="round" stroke-linejoin="round" pathLength="1" stroke-dasharray="1" stroke-dashoffset="1"><animate attributeName="stroke-dashoffset" to="0" dur="5.0s" fill="freeze" repeatCount="indefinite"/></path><path d="M457.5 48.75c-1.154 6.922-2.878 15.872 1.25 20 .187.187 3.312-1.56 3.75-3.75 1.23-6.148.778-11.722-3.75-16.25m0 0c0-5.34-.28-2.92-2.5-6.25M460 50c2.414-4.829.214-2.714 5-7.5m-2.5 8.75c2.081-3.547 4.376-5.683 8.136-6.879 3.393-1.079 4.736-.943 6.19 1.78 2.337 4.38-.682 9.296-6.752 10.099-1.242.164-3.184 1.113-3.76 0-.513-.994 1.998-1.186 3.114-1.25 3.295-.19 8.144 3.561 8.072 6.36-.033 1.29-3.256 4.66-4.714 5.372-3.478 1.7-6.726.782-10.286-1.732m-5-16.25c-1.677-2.66-2.641-4.759-5.314-5.782-3.756-1.438-8.22.513-10.029 4.31-2.805 5.89 1.124 12.253 6.053 11.472 4.611-.73 3.34-7.262-1.918-2.52-4.247 3.828-2.892 12.171 2.017 13.55 3.653 1.025 6.598-1.915 9.191-6.03" fill="none" stroke="#000" stroke-width=".375" stroke-linecap="round" stroke-linejoin="round" pathLength="1" stroke-dasharray="1" stroke-dashoffset="1"><animate attributeName="stroke-dashoffset" to="0" dur="5.0s" fill="freeze" repeatCount="indefinite"/></path><path d="M495 50c-2.004-10.469-15.89-8.407-15 1.79.404 4.634 6.522 7.24 8.75 5.05.814-.8-2.388-.064-3.391.48-1.225.665-2.248 1.76-2.953 2.962-2.939 5.011-.951 13.08 3.749 14.67 4.562 1.544 9.108-3.446 11.345-9.952m-1.25-17.5c-2.469 4.937-1.044 11.76 0 17.5.766 4.212 3.61 8.38 6.25 7.5.574-.191 2.142-2.677 2.5-3.75 1.663-4.988 2.26-10.478 0-15-1.259-2.517-3.814-6.25-6.25-6.25M505 50c-1.752-4.509-.633-6.486 3.448-8.549 1.938-.979 5.79-1.825 6.845-.865 2.07 1.882 1.007 6.285-1.838 9.856-.775.974-1.176 2.243-2.072 3.108-.561.542-2.693 1.504-2.138.955 3.766-3.729 10.535.237 9.418 5.669C517.281 66.897 511 70.496 505 66.25M495 47.5c-.92-2.76-1.123-5-3.75-5m6.25 5c0-3.534 1.808-4.654 5-6.25" fill="none" stroke="#000" stroke-width=".375" stroke-linecap="round" stroke-linejoin="round" pathLength="1" stroke-dasharray="1" stroke-dashoffset="1"><animate attributeName="stroke-dashoffset" to="0" dur="5.0s" fill="freeze" repeatCount="indefinite"/></path><path d="M0 98.75c6.622 6.622 16.679 9.243 23.75 5 1.877-1.126 3.198-3.605 2.5-5-2.115-4.23-7.078-5.493-12.5-5-5.716.52-7.964.464-12.5 5m0 0c0 5.848-2.885 13.365 1.25 17.5.932.932 2.443 1.087 3.75 1.25 2.388.299 17.403 1.347 20-1.25 3.022-3.022.45-11.15-1.25-16.25m-18.75 2.5v-10M5 92.5c-2.204 0-2.985-1.53-1.25-5 .186-.373-.417-1.25 0-1.25 1.718 0 1.25 3.282 1.25 5m7.5 10v-10m0 0c-2.998 0-3.958-4.792-1.25-7.5 1.977-1.977 2.98 5.77 1.25 7.5m6.25 10V90m0 0c-1.87-1.87-3.337-3.326-2.5-5 .833-1.667 4.167-4.167 5-2.5.433.866-.71 4.63-1.25 6.25m6.25 13.75c-.417-.417-1.191-.664-1.25-1.25-.373-3.731 0-7.5 0-11.25m0 0c-2.037-2.037-1.92-6.54 0-7.5 1.974-.987 4.101 2.149 1.25 5" fill="none" stroke="#000" stroke-width=".375" stroke-linecap="round" stroke-linejoin="round" pathLength="1" stroke-dasharray="1" stroke-dashoffset="1"><animate attributeName="stroke-dashoffset" to="0" dur="5.0s" fill="freeze" repeatCount="indefinite"/></path><path d="M51.25 93.75c-.417 4.583-2.073 9.222-1.25 13.75.224 1.23 2.5 0 3.75 0 4.583 0 9.18-.352 13.75 0 .929.071 2.205 2.134 2.5 1.25.922-2.767 0-5.833 0-8.75v-6.25c0-.8-6.758-1.52-10-1.25-2.117.176-4.167.833-6.25 1.25m2.5-1.25v-3.75m6.25 5V87.5m5 6.25v-7.5m3.75 7.5V87.5m0-1.25c-1.773-1.773-1.773-3.227 0-5m-3.75 5c0-2.254-1.25-3.02-1.25-5m-5 5c0-3.131-1.25-3.119-1.25-6.25m-5 6.25c0-3.399-2.195-4.055 0-6.25m-3.75 6.25C49.425 84.425 50 82.612 50 80m-3.75 23.75c-3.643 0-9.672 4.407-8.75 6.25.72 1.441 4.521 3.366 6.25 3.75 5.124 1.139 11.06 1.65 16.25 1.25 3.65-.28 9.09-.88 11.25-2.5 4.314-3.235 5.202-6.149 0-8.75" fill="none" stroke="#000" stroke-width=".375" stroke-linecap="round" stroke-linejoin="round" pathLength="1" stroke-dasharray="1" stroke-dashoffset="1"><animate attributeName="stroke-dashoffset" to="0" dur="5.0s" fill="freeze" repeatCount="indefinite"/></path><path d="M91.25 93.75c-.417 4.583-2.073 9.222-1.25 13.75.224 1.23 2.5 0 3.75 0 4.583 0 9.18-.352 13.75 0 .929.071 2.205 2.134 2.5 1.25 1.581-4.743.98-10.097 0-15-.245-1.226-2.5 0-3.75 0H92.5m5-1.25c0-.177-.389-6.172 0-6.25 4.81-.962 8.267-.087 7.5 3.75-.258 1.292-.833 2.5-1.25 3.75m-2.5-8.75v-3.75m0 0c-1.3 0-2.306-2.5 0-2.5.833 0 .59 1.91 0 2.5m-13.75 22.5c-3.515 0-7.284-.56-10 1.25-.693.462-.59 1.91 0 2.5.429.429 5.104 2.292 6.25 2.5 7.198 1.309 15.174 1.814 22.5 1.25 1.314-.101 2.527-.76 3.75-1.25 4.764-1.906 4.71-5-2.5-5m-25 0h5m0 0H90" fill="none" stroke="#000" stroke-width=".375" stroke-linecap="round" stroke-linejoin="round" pathLength="1" stroke-dasharray="1" stroke-dashoffset="1"><animate attributeName="stroke-dashoffset" to="0" dur="5.0s" fill="freeze" repeatCount="indefinite"/></path><path d="M121.25 100c-.723 4.339-2.399 10.609-.683 14.317 1.501 3.246 3.727 3.5 7.837 4.034 7.748 1.007 18.642.112 22.261-5.931 2.348-3.92 3.035-11.087.328-13.67-.729-.695-8.18-2.297-9.359-2.423-6.56-.702-12.837.223-19.134 2.423m5-2.5c0-3.626.527-4.607 1.25-7.5m6.25 7.5l1.25-6.25m6.25 7.5l1.25-7.5m6.25 7.5v-6.25m-1.25-2.5c-4.318 0-2.995-7.5 1.25-7.5.767 0 1.417 3.416 0 6.25m-6.25 1.25c-2.93 0-3.917-6.167-1.25-7.5.833-.416 2.254.266 2.5 1.25.303 1.213 0 2.5 0 3.75M136.25 90c-2.974 0-4.445-5.903-1.25-7.5 1.136-.568 2.5 2.914 2.5 6.25m-7.5 2.5c-4.784-9.569 6.04-10.83 1.25-1.25" fill="none" stroke="#000" stroke-width=".375" stroke-linecap="round" stroke-linejoin="round" pathLength="1" stroke-dasharray="1" stroke-dashoffset="1"><animate attributeName="stroke-dashoffset" to="0" dur="5.0s" fill="freeze" repeatCount="indefinite"/></path><path d="M160 118.75c0-3.252.234-13.073 1.25-13.75 2.886-1.924 2.989-1.25 6.25-1.25 5 0 10.15-1.213 15 0 1.211.303 3.076 6.544 2.5 10-.245 1.467-3.47 2.5-6.25 2.5-10.103 0-5.102.4-15-1.25m6.25-11.25c0-2.917-.412-5.863 0-8.75.176-1.233 5.021-1.652 7.5 0 3.02 2.014 1.25 4.227 1.25 7.5m-6.25-8.75c0-2.5-1.118-5.264 0-7.5.559-1.118 2.564-.395 3.75 0 1.254.418 1.25 2.75 1.25 5M173.75 85v-3.75m3.75 5V82.5m1.25 5l1.25-5" fill="none" stroke="#000" stroke-width=".375" stroke-linecap="round" stroke-linejoin="round" pathLength="1" stroke-dasharray="1" stroke-dashoffset="1"><animate attributeName="stroke-dashoffset" to="0" dur="5.0s" fill="freeze" repeatCount="indefinite"/></path><path d="M200 96.25v15m0-13.75c12.114 6.057 25.128 7.372 33.75-1.25M235 95c0 3.333.302 6.68 0 10-.12 1.312-.833 2.5-1.25 3.75m-33.75 2.5c13.373 4.458 22.288 5.141 33.75-2.5m-35-15c7.526-7.526 25.907-8.186 30 0m-23.75 0c-.417-.417-1.153-.669-1.25-1.25-.342-2.055 0-4.167 0-6.25m10 8.75V85m8.75 10V83.75m0-1.25c-1.25 0-.884-4.634 0-3.75.884.884 0 2.5 0 3.75M215 85c-1.95 0-1.959-2.332-1.25-3.75.417-.833 1.25 1.568 1.25 2.5m-7.5 0c-1.646-1.646-.833-4.583 0-3.75.884.884 0 2.5 0 3.75" fill="none" stroke="#000" stroke-width=".375" stroke-linecap="round" stroke-linejoin="round" pathLength="1" stroke-dasharray="1" stroke-dashoffset="1"><animate attributeName="stroke-dashoffset" to="0" dur="5.0s" fill="freeze" repeatCount="indefinite"/></path><path d="M241.25 98.75c0 1.667.128 3.338 0 5-.29 3.762-.908 7.492-1.25 11.25-.175 1.925-.287 2.982 1.25 3.75 4.891 2.446 22.837 2.62 26.25-2.5 3.382-5.073 4.654-14.895 1.25-20-.818-1.227-.644-1.25-2.5-1.25-3.333 0-6.685-.349-10 0-4.633.488-9.167 1.667-13.75 2.5m3.75-1.25V87.5m0 0c-3.794-3.794 3.694-4.944 0-1.25m10 8.75v-8.75m0 0c-1.974 0-3.043-1.413-2.5-2.5.545-1.09 2.243-1.507 2.5-1.25.932.932-.66 2.571-1.25 3.75m7.5 8.75v-8.75m0 0c-2.345 0-3.13-1.87-1.25-3.75.92-.92 2.256-1.494 2.5-1.25.932.932-.66 2.571-1.25 3.75m5 10V85m0 1.25c-.545-1.09-1.467-3.317-1.25-3.75 1.508-3.017 3.984-.234 1.25 2.5m-21.25 16.25c0 1.38 4.174 0 7.5 0 .932 0 1.568 1.25 2.5 1.25 6.03 0 11.196-2.5 17.5-2.5m-26.25 7.5c4.961 2.48 8.784-1.25 15-1.25.932 0 1.568 1.25 2.5 1.25 2.951 0 6.08-1.25 8.75-1.25M250 112.5c2.18 2.18 3.542 0 7.5 0 .932 0 1.568 1.25 2.5 1.25 4.588 0 9.549-2.5 13.75-2.5" fill="none" stroke="#000" stroke-width=".375" stroke-linecap="round" stroke-linejoin="round" pathLength="1" stroke-dasharray="1" stroke-dashoffset="1"><animate attributeName="stroke-dashoffset" to="0" dur="5.0s" fill="freeze" repeatCount="indefinite"/></path><path d="M280 100c0 4.583-.352 9.18 0 13.75.192 2.496 2.007 2.752 5 3.75 1.25.417 2.438 1.13 3.75 1.25 3.32.302 6.676.256 10 0 .961-.074 11.057-2.384 11.25-2.5 1.143-.686 2.996-13.254 1.25-15-.553-.553-6.495-2.312-8.75-2.5-6.541-.545-13.442 0-20 0m5 0V92.5m8.75 6.25v-7.5m7.5 7.5V95m6.25 5v-5m0-2.5v-3.75m-6.25 5V90m-7.5 2.5v-1.25M290 92.5V90m-7.5 2.5l-1.25-1.25m5-2.5v-2.5m7.5 3.75v-3.75m6.25 5v-2.5m7.5 2.5v-2.5m5 0V87.5m3.75 2.5l1.25-2.5m1.25-1.25V85m-6.25 2.5v-3.75m-6.25 5V87.5m-7.5 2.5v-2.5m-6.25 1.25V87.5M285 90v-2.5m-3.75 1.25V87.5m1.25 0l1.25-1.25m-2.5 2.5V87.5m0 0v-1.25m1.25 0V85m0 0l1.25-1.25M287.5 85v-2.5m5 2.5v-3.75m5 3.75v-3.75m3.75 3.75v-2.5m5 2.5v-2.5m5 2.5v-3.75M315 85v-2.5m2.5 2.5v-2.5m3.75 1.25V80m2.5 3.75V82.5" fill="none" stroke="#000" stroke-width=".375" stroke-linecap="round" stroke-linejoin="round" pathLength="1" stroke-dasharray="1" stroke-dashoffset="1"><animate attributeName="stroke-dashoffset" to="0" dur="5.0s" fill="freeze" repeatCount="indefinite"/></path><path d="M321.25 97.5c-.417 2.083-1.087 4.132-1.25 6.25-.256 3.324 0 6.667 0 10m1.25-13.75c11.986 0 22.19 3.54 31.25-2.5m-33.75 16.25c12.437 6.218 20.575 5.905 32.5-1.25m1.25-12.5l-1.25 11.25m-35-10c3.665-7.33 12.47-9.548 21.25-8.75 6.993.636 12.5 2.21 12.5 8.75m-26.25-3.75c0-7.624.098-4.24 1.25-10m7.5 10c0-.833-.103-1.673 0-2.5.314-2.515.833-5 1.25-7.5m6.25 8.75l1.25-7.5m6.25 8.75c1.63-6.517 1.25-3.18 1.25-10m0-1.25c0-6.618 3.34-5.428 1.25-1.25m-6.25 1.25c0-1.643 1.307-5 2.5-5 1.25 0 0 2.5 0 3.75m-7.5 0c0-2.046 3.089-4.411 3.75-3.75.932.932-.66 2.571-1.25 3.75M330 85c0-2.572 3.104-5.646 3.75-5 .932.932-.66 2.571-1.25 3.75M326.25 85c0-1.34-.62-3.76 0-5 1.48-2.96 3.853-.103 1.25 2.5m-3.75 21.25c11.002 2.75 22.368 4.671 31.25-1.25m-30 7.5c9.616 4.808 20.616 1.754 31.25-2.5" fill="none" stroke="#000" stroke-width=".375" stroke-linecap="round" stroke-linejoin="round" pathLength="1" stroke-dasharray="1" stroke-dashoffset="1"><animate attributeName="stroke-dashoffset" to="0" dur="5.0s" fill="freeze" repeatCount="indefinite"/></path><path d="M360 100c5.516 5.516 16.381 8.092 23.75 6.25 3.98-.995 12.5-4.538 12.5-7.5m-35 0c7.455-7.455 24.532-6.484 35-1.25m-35 2.5c0 5.448 1.25 10.785 1.25 16.25m35-15v15m-35 0c0 2.535 4.55 4.578 7.5 5 9.182 1.312 19.836.11 27.5-5m-35-10c1.085 3.51 5.772 4.813 9.662 5 7.234.348 17.032-.078 22.838-3.75m-22.5-2.5V92.5m0 0c-1.579-1.579-1.733-3.069-1.25-5 .286-1.143 2.127-3.618 2.5-2.5.697 2.09.531 4.469-1.25 6.25m11.25 15V92.5m0 0c-3.786-3.786.126-8.687 2.5-7.5 1.537.768-.482 3.463-1.25 5m7.5 15V90" fill="none" stroke="#000" stroke-width=".375" stroke-linecap="round" stroke-linejoin="round" pathLength="1" stroke-dasharray="1" stroke-dashoffset="1"><animate attributeName="stroke-dashoffset" to="0" dur="5.0s" fill="freeze" repeatCount="indefinite"/></path><path d="M400 96.25c5.31 5.31 12.39 5.652 20 3.75 1.667-.417 3.405-.612 5-1.25 3.011-1.205 3.814-5.474-1.25-7.5-5.555-2.222-11.655-1.67-17.5 0-1.971.563-5 1.819-5 3.75m0 0c0 6.5-.028 12.36 1.25 18.75m23.75-22.5c0 2.5.166 5.006 0 7.5-.251 3.765-.833 7.5-1.25 11.25m-25 1.25c8.474 4.237 15.849 4.3 25 1.25m-20-25v5m7.5-5v6.25m6.25-6.25v5m-12.5-7.5c0-1.59-1.94-2.368-1.25-3.75 1.604-3.207 4.071-.643 2.5 2.5m7.5 2.5c0-1.937.607-5 1.25-5 .562 0 2.123 1.627 0 3.75m7.5 0c-5.538-5.538 5.81-5.81 1.25-1.25" fill="none" stroke="#000" stroke-width=".375" stroke-linecap="round" stroke-linejoin="round" pathLength="1" stroke-dasharray="1" stroke-dashoffset="1"><animate attributeName="stroke-dashoffset" to="0" dur="5.0s" fill="freeze" repeatCount="indefinite"/></path><path d="M441.25 98.75c-.67 5.622-2.831 13.116-.052 17.396 4.696 7.231 24.689 4.81 26.302-3.274 1.241-6.22-.72-13.123-6.047-14.888-5.08-1.682-12.285-.484-17.703-.484m3.75-1.25c-3.636-3.636 2.286-11.616 8.75-10 .996.249 3.56 3.669 3.75 5 .295 2.062 0 4.167 0 6.25m-10-8.75V82.5m5 3.75V82.5m5 5v-3.75m-8.75 0c-3.338-3.338 0-4.926 0-1.25m5 0c0-3.833 6.864 0 1.25 0m3.75 1.25c0-4.528 3.537-2.287 1.25 0m-16.25 20c1.252 2.504 3.5 4.5 5 3.75 1.118-.559 2.352-3.75 3.75-3.75 1.398 0 2.632 3.191 3.75 3.75.366.183 2.939-.439 3.75-1.25 1.062-1.062 1.075-3.275 2.5-3.75 1.425-.475 1.075 3.275 2.5 3.75 2.4.8 2.944-.444 5-2.5" fill="none" stroke="#000" stroke-width=".375" stroke-linecap="round" stroke-linejoin="round" pathLength="1" stroke-dasharray="1" stroke-dashoffset="1"><animate attributeName="stroke-dashoffset" to="0" dur="5.0s" fill="freeze" repeatCount="indefinite"/></path><path d="M480 116.25c0-2.946-1.64-8.172 1.25-8.75 5.493-1.099 14.5-1.1 20 0 2.936.587-.6 9.35-1.25 10m-13.75-11.25c-8.317-8.317 10-13.35 10-2.5m-7.5-7.5c0-1.667-.404-3.383 0-5 .053-.213 3.73-.01 3.75 0 1.927.964 1.25 3.535 1.25 6.25m-2.5-6.25V87.5m0-1.25c-3.419-3.419-2.813-4.218 1.25-6.25m0 8.75c1.663-3.327 1.708-5.333 0-8.75m0 0c-1.707-1.707-1.707-2.043 0-3.75m0 6.25c1.854-1.854 1.954-4.296 0-6.25" fill="none" stroke="#000" stroke-width=".375" stroke-linecap="round" stroke-linejoin="round" pathLength="1" stroke-dasharray="1" stroke-dashoffset="1"><animate attributeName="stroke-dashoffset" to="0" dur="5.0s" fill="freeze" repeatCount="indefinite"/></path><path d="M20 131.25c-3.63.165-11.241 2.524-11.235 7.53.005 4.862 7.063 7.641 11.048 7.116 11.572-1.527 10.324-14.646-1.063-14.646m8.75 2.5c3.785-1.893 5-3.318 5-7.5-1.423 0-4.26.121-5-1.577-.284-.654-.387-3.318.794-3.423 3.43-.305-.824 1.116 2.563 1.053 1.584-.029 1.422-3.546 3.513-3.553 4.357-.014.391 5.239-.62 6.25M7.5 138.75c-1.907-1.907-2.5-3.596-2.5-6.25 2.185 0 10.006-4.07 5.055-6.195-1.898-.815-2.741 2.098-4.457 2.445-1.218.246-2.556-1.262-3.466-.882-2.639 1.1.21 3.286 1.618 3.382m8.75 10l-5 2.5m5 0L10 145m5 0l-2.5 2.5m16.25-10H30m-1.25 2.5l1.25 1.25m-3.75 1.25l1.25 1.25" fill="none" stroke="#000" stroke-width=".375" stroke-linecap="round" stroke-linejoin="round" pathLength="1" stroke-dasharray="1" stroke-dashoffset="1"><animate attributeName="stroke-dashoffset" to="0" dur="5.0s" fill="freeze" repeatCount="indefinite"/></path><path d="M60 130c-3.86 0-7.942.699-10.892 3.511-3.6 3.431-.397 7.282 3.633 7.739 3.295.374 8.57.666 11.675-.639 3.086-1.296 6.02-6.347 2.764-8.896-2.463-1.928-5.518-1.715-8.43-1.715m-10 5c-4.664 0-6.25-1.802-6.25-6.25-.997-.499-7.05-5.38-2.663-6.087 2.54-.41-.025 4.54 2.647 3.587.281-.1 3.614-3.693 3.766-3.336.793 1.86-2.708 4.794-3.75 5.836m23.75 3.75c5.438 0 7.5-5.577 7.5-10m0 1.25c-1.575 0-4.316.538-5-1.479-.144-.423.068-3.856 1.371-3.279 1.207.535 1.04 4.51 2.761 4.567 1.051.034 3.439-3.192 3.63-3.037 1.997 1.625-.474 3.44-1.512 4.478m-25 12.5c-1.746 0-3.75.608-3.75 2.5m5-1.25c-1.8 1.8-2.5 2.416-2.5 5m5-3.75c-1.206 1.206-2.5 2-2.5 3.75M70 137.5l3.75 3.75M70 137.5l3.75 3.75m-5-3.75c2.044 1.022 3.388 2.138 5 3.75" fill="none" stroke="#000" stroke-width=".375" stroke-linecap="round" stroke-linejoin="round" pathLength="1" stroke-dasharray="1" stroke-dashoffset="1"><animate attributeName="stroke-dashoffset" to="0" dur="5.0s" fill="freeze" repeatCount="indefinite"/></path><path d="M103.75 130c-4.797-2.285-10.27-.684-13.66 3.66-2.456 3.147-1.794 9.144 2.104 11.034 6.103 2.96 21.022-5.536 15.617-12.823-.74-.996-4.316-2.624-5.311-3.121m-10 2.5c-4.33 0-5.958-3.66-4.893-7.715.302-1.148 1.615-3.379.438-3.535-2.137-.284-1.68 2.606-2.778 3.216-.426.237-2.945-1.726-3.034-1.7-2.58.788-.111 3.046.34 3.556 2.924 3.311 4.64 7.91 8.677 9.928m16.25-5c1.871-1.777 4.447-2.463 5-5.342.139-.721-.85-5.023 1.116-4.658 2.684.499.537 1.884 1.384 3.198.374.58 3.474-2.223 3.75.99.227 2.643-7.99 7.307-10 8.312M90 136.25c-2.91 1.455-5.191 2.691-7.5 5m10-1.25c-2.908 0-5.567 3.067-7.5 5m7.5-1.25c-2.068 1.034-2.716 1.682-3.75 3.75M112.5 135c2.885 0 4.897-.051 7.5 1.25m-10 1.25h6.25m-7.5 2.5c2.138 0 3.45-.3 5 1.25" fill="none" stroke="#000" stroke-width=".375" stroke-linecap="round" stroke-linejoin="round" pathLength="1" stroke-dasharray="1" stroke-dashoffset="1"><animate attributeName="stroke-dashoffset" to="0" dur="5.0s" fill="freeze" repeatCount="indefinite"/></path><path d="M141.25 128.75c-5.635 0-10.622.584-14.798 4.798-4.545 4.586-1.714 10.084 4.299 11.452 9.957 2.266 21.933-7.377 10.499-15m3.75 2.5c3.798 0 6.25-.76 6.25-5-1.161-.1-5.404-3.42-3.726-5 1.262-1.188 1.629 1.231 2.363 1.137 1.232-.158.118-2.98 1.24-3.513 5.567-2.648 3.373 6.626 1.373 8.626M126.25 135c-3.998-1.999-4.44-4.869-2.5-8.75-1.726-1.726-1.247-6.855 2.143-6.25 2.391.427.517 1.696.474 2.383-.076 1.215 3.666-1.591 3.633-.374-.054 2.016-3.627 2.533-5 2.991m0 15c-2.1 0-3.75 4.23-3.75 6.25m6.25-2.5c-2.1 0-3.75 4.23-3.75 6.25m5-2.5c-1.292 1.292-1.25 1.95-1.25 3.75m18.75-10c2.068 1.034 2.716 1.682 3.75 3.75m-5-1.25c.9.9 1.25 1.208 1.25 2.5m-5-1.25l1.25 2.5m5-12.5c1.3.65 2.283 1.25 3.75 1.25m-2.5-3.75h3.75" fill="none" stroke="#000" stroke-width=".375" stroke-linecap="round" stroke-linejoin="round" pathLength="1" stroke-dasharray="1" stroke-dashoffset="1"><animate attributeName="stroke-dashoffset" to="0" dur="5.0s" fill="freeze" repeatCount="indefinite"/></path><path d="M180 121.25c-2.333 0-5.527-.573-7.656.703-7.02 4.205-2.476 11.17 4.015 11.797 3.992.386 12.194-3.01 11.141-8.416-.467-2.399-4.434-3.479-6.25-4.084m6.25 2.5c3.601-1.8 6.277-1.241 10 0m-11.25 2.5c2.637 0 5.577-.673 7.5 1.25m-7.5 1.25c1.949.65 3.533 1.033 5 2.5M170 120h-7.5m5 2.5c-2.412 0-4.5-.5-6.25 1.25m7.5 0c-2.324.581-4.532.782-6.25 2.5m8.75 1.25c-3.104 1.552-9.648 11.5-1.646 10 2.804-.526.092-2.05.396-3.239.567-2.218.13-3.7 3.75-5.511M185 130c5.187 0-.512 9.62 3.602 7.5 4.014-2.068-.782-7.18-2.352-8.75" fill="none" stroke="#000" stroke-width=".375" stroke-linecap="round" stroke-linejoin="round" pathLength="1" stroke-dasharray="1" stroke-dashoffset="1"><animate attributeName="stroke-dashoffset" to="0" dur="5.0s" fill="freeze" repeatCount="indefinite"/></path><path d="M211.25 130c3.884-1.942 8.128-3.49 12.454-1.898 3.844 1.414 7.789 5.967 3.316 9.638-4.775 3.919-20.526.254-15.77-7.74m2.5-1.25V125m5 3.75v-5m7.5 7.5c1.154-1.154 1.773-2.295 2.5-3.75m-1.25 0c0-2.49.303-4.864 2.91-5.83.005-.002 3.067-.942 3.243-.323.049.174-1.963 3.918-2.026 4.526-.144 1.397 2.257-1.881 3.64-2.123 1.058-.185 2.337 1.011 2.233 2.076-.244 2.49-5.707 3.576-7.5 4.174m-20 1.25c-1.455-.727-2.596-1.346-3.75-2.5 0-2.44-1.266-7.868-5.068-6.182-3.762 1.668 3.104 2.594.447 4.553-1.014.748-3.51-.326-4.129.923-2.457 4.963 4.184 2.645 6.25 1.956m6.25 6.25c-1.523 0-2.5-.471-2.5 1.25m3.75-1.25c-.9.9-1.25 1.208-1.25 2.5m3.75 0c-.9.9-1.25 1.208-1.25 2.5m15-3.75c1.292 0 1.6.35 2.5 1.25m-3.75 0l1.25 1.25m-2.5 0v1.25" fill="none" stroke="#000" stroke-width=".375" stroke-linecap="round" stroke-linejoin="round" pathLength="1" stroke-dasharray="1" stroke-dashoffset="1"><animate attributeName="stroke-dashoffset" to="0" dur="5.0s" fill="freeze" repeatCount="indefinite"/></path><path d="M261.25 128.75c-2.282 0-5.097-.61-7.028 1.014-4.089 3.438-3.971 9.62 2.132 10.236 9.981 1.008 14.032-11.25 2.396-11.25m7.5 2.5c3.855 0 4.773-3.296 6.25-6.25-3.441-.047-2.69-5.225-.995-4.745 2.92.828-.809.834.995 2.137.945.683 3.042-2.429 4.052-2.09 3.887 1.303-3.019 5.431-4.052 5.948m-20 8.75c-4.804 0-6.023-1.818-7.5-6.25-13.062 0 5.494-10.988 0 0m8.75 8.75c-2.195 0-5 1.345-5 3.75m6.25-3.75c-1.802.901-3.75 1.515-3.75 3.75m12.5-3.75c1.746 0 3.75.608 3.75 2.5m-3.75-3.75c1.8 0 2.458-.042 3.75 1.25m-3.75-1.25h2.5" fill="none" stroke="#000" stroke-width=".375" stroke-linecap="round" stroke-linejoin="round" pathLength="1" stroke-dasharray="1" stroke-dashoffset="1"><animate attributeName="stroke-dashoffset" to="0" dur="5.0s" fill="freeze" repeatCount="indefinite"/></path><path d="M300 131.25c-2.98 0-8.383-.796-10.622 1.872-3.265 3.89 1.78 6.768 5.003 6.878 2.767.094 8.595-.596 10.228-3.36 1.92-3.247-2.274-5.39-4.609-5.39m3.75 1.25c2.405 0 3.75-2.805 3.75-5-1.79-.256-3.843-1.908-3.586-4.078.03-.26 1.713-3.614 2.336-2.984 1.44 1.456-.924 1.547 1.019 2.849.37.248 2.72-4.132 3.981-3.216 2.657 1.93-2.39 6.749-3.75 7.429m-20 8.75c-2.474-.825-6.25-1.841-6.25-5-1.391-.696-3.855-1.4-3.75-3.405.067-1.271 1.885-4.16 3.579-2.845.648.504-.574 2.227.215 2.456.893.259 1.418-2.81 2.9-2.012 2.68 1.444-.475 5.837-1.694 7.056m8.75 6.25c-1.206 1.206-2.5 2-2.5 3.75m5-3.75c-.912 1.825-1.25 2.957-1.25 5m5-5v2.5m1.25-3.75l2.5 2.5m0-3.75c1.455.727 2.596 1.346 3.75 2.5" fill="none" stroke="#000" stroke-width=".375" stroke-linecap="round" stroke-linejoin="round" pathLength="1" stroke-dasharray="1" stroke-dashoffset="1"><animate attributeName="stroke-dashoffset" to="0" dur="5.0s" fill="freeze" repeatCount="indefinite"/></path><path d="M331.25 130c3.136-6.271 16.826-6.69 16.25 2.282-.733 11.417-14.401 5.578-16.25-2.282m0-1.25l-5-2.5c0-1.866.26-5.287-2.229-5.979-1.431-.398-1.693 2.268-1.521 2.969.142.58 1.39 1.583.792 1.607-.92.038-1.699-.877-2.619-.873-1.607.008-.54 2.166.21 2.57 1.664.896 3.538.956 5.367.956m18.75 1.25l5-2.5c0-1.569-.417-5.24 1.33-6.25.577-.334 2.338-.182 2.42.891.077 1.006-1.875 2.179-1.097 2.82 1.072.885 4.942-2.667 6.097-.833 2.577 4.093-7.116 4.622-8.75 4.622m-20 6.25c-2.043 0-3.175.338-5 1.25m5 0l-2.5 2.5m5 0l-1.25 1.25M345 135c2.043 0 3.175.338 5 1.25m-3.75 1.25l2.5 1.25m-3.75 0l1.25 1.25" fill="none" stroke="#000" stroke-width=".375" stroke-linecap="round" stroke-linejoin="round" pathLength="1" stroke-dasharray="1" stroke-dashoffset="1"><animate attributeName="stroke-dashoffset" to="0" dur="5.0s" fill="freeze" repeatCount="indefinite"/></path><path d="M383.75 130c-3.2 0-8.286.03-10.871 2.31-3.773 3.329-.356 7.092 3.43 7.69 6.355 1.003 16.525-5.458 7.441-10m2.5 2.5c5.688 0 7.5-1.812 7.5-7.5-2.21-1.105-2.5-1.257-2.5-3.75m3.75 5c2.235 0 2.849-1.948 3.75-3.75m-26.25 13.75c-4.804 0-6.023-1.818-7.5-6.25-1.644-.548-3.75-.589-3.75-2.5m5 1.25c1.154-1.154 1.773-2.295 2.5-3.75m2.5 15h-5m7.5 0l-5 2.5M375 140l-2.5 3.75m11.25-5l5 2.5m-5-1.25l2.5 2.5" fill="none" stroke="#000" stroke-width=".375" stroke-linecap="round" stroke-linejoin="round" pathLength="1" stroke-dasharray="1" stroke-dashoffset="1"><animate attributeName="stroke-dashoffset" to="0" dur="5.0s" fill="freeze" repeatCount="indefinite"/></path><path d="M421.25 128.75c-3.036 0-6.738-.05-8.815 2.63-3.123 4.03 2.226 7.359 5.825 7.37 2.682.009 7.04-.67 9.174-2.467 5.024-4.232-2.376-8.783-6.184-8.783m-5 1.25V125m-1.25-1.25c0 2.682 2.682 0 0 0m7.5 3.75v-3.75m1.25-1.25c-1.91 0-1.31 1.755-.132 1.25 1.205-.516-.629-1.25-1.118-1.25m5 7.5c1.612-1.612 2.956-2.728 5-3.75m0-1.25c0-.403 1.14-5.843 2.49-3.75.25.39-1.475 2.088-1.217 2.453.112.158 2.168-1.18 2.393-1.16 3.597.313-1.711 3.355-2.416 3.707m-22.5 3.75c-2.737-.912-4.207-1.707-6.25-3.75 0-5.064-.504-4.6-2.5-1.454-.44.693-2.059-.237-2.5.24-1.766 1.913 3.119 2.464 3.75 2.464m8.75 8.75c-1.422.71-2.5.82-2.5 2.5m5-2.5c-1.422.71-2.5.82-2.5 2.5m10-2.5c1.68 0 1.79 1.078 2.5 2.5m-2.5-2.5c1.292 0 1.6.35 2.5 1.25m-3.75-2.5c1.523 0 2.5-.471 2.5 1.25" fill="none" stroke="#000" stroke-width=".375" stroke-linecap="round" stroke-linejoin="round" pathLength="1" stroke-dasharray="1" stroke-dashoffset="1"><animate attributeName="stroke-dashoffset" to="0" dur="5.0s" fill="freeze" repeatCount="indefinite"/></path><path d="M463.75 130c-5.066-2.533-18.76 1.928-12.408 8.842 7.989 8.694 21.97.22 13.658-10.092m1.25 1.25c2.395 0 5.735-.604 6.186-3.621.132-.887-2.048-3.913-1.405-3.879 1.015.054 2.197 1.66 3.397.572.454-.412-.04-1.702.572-1.75 2.293-.176.601 6.508.097 7.235-1.923 2.768-5.828 3.188-8.847 3.943m-12.5-1.25c-3.15 0-8.198-3.557-3.97-6.765.731-.555 3.48-.722 3.912-1.927.38-1.06-4.357-1.85-4.44-1.81-7.208 3.457-3.693 11.752 3.248 11.752M450 135c-2.412 0-4.5-.5-6.25 1.25m7.5 1.25c-1.949.65-3.533 1.033-5 2.5m7.5 0c-1.455.727-2.596 1.346-3.75 2.5m18.75-10c2.412 0 4.5-.5 6.25 1.25m-6.25 2.5c1.467 0 2.45.6 3.75 1.25m-5 1.25c2.043 0 3.175.338 5 1.25m-6.25 0c1.455.727 2.596 1.346 3.75 2.5" fill="none" stroke="#000" stroke-width=".375" stroke-linecap="round" stroke-linejoin="round" pathLength="1" stroke-dasharray="1" stroke-dashoffset="1"><animate attributeName="stroke-dashoffset" to="0" dur="5.0s" fill="freeze" repeatCount="indefinite"/></path><path d="M500 131.25c-6.3-3.15-11.986 4.707-4.653 8.866 4.08 2.313 17.537-.397 10.99-6.28-1.54-1.382-4.431-1.95-6.337-2.586m-3.75 0v-3.75m7.5 5v-5M505 125c-.711 0-2.16 1.015-.987 1.25 1.87.374 3.377-1.25.987-1.25m-7.5 0c-2.759 0-.326 2.583.159 2.341 1.45-.725 1.574-2.341-.159-2.341m-3.75 8.75c-4 0-6.25-3.936-6.25-7.5 2.124-.145 1.563-4.09-.133-5-2.745-1.472-1.889 2.26-2.792 2.288-.879.027-1.56-.89-2.426-1.038-6.648-1.14 2.69 4.838 2.851 5m25 6.25c3.886 0 5-2.584 5-6.25-1.773-.886-6.412-5.654-1.342-6.158 1.635-.162 1.044 2.681 1.342 3.21.36.636 2.13-.9 3-.302 2.857 1.963-3.031 3.89-4.25 4.5m-21.25 10L490 140m5 0v1.25m2.5-1.25v1.25m3.75-1.25l1.25 1.25" fill="none" stroke="#000" stroke-width=".375" stroke-linecap="round" stroke-linejoin="round" pathLength="1" stroke-dasharray="1" stroke-dashoffset="1"><animate attributeName="stroke-dashoffset" to="0" dur="5.0s" fill="freeze" repeatCount="indefinite"/></path><path d="M10 198.75V180m0 0c-1.681-.007-3.448.507-5.044-.022-3.427-1.136-5.657-4.54-4.956-7.768.365-1.682 3.901-1.833 3.75-3.546-.144-1.632-1.495-3.134-1.25-4.755.507-3.344 3.469-5.39 6.877-4.532 1.145.288 1.51 2.209 2.686 2.31 1.62.139 3.016-2.149 4.574-1.687 1.353.401 2.386 2.284 2.113 3.668-.272 1.382-4.065 1.372-3.345 2.582.853 1.434 3.459-.433 5.002.203 1.434.592 3.492 1.694 3.343 3.238-.155 1.602-2.757 1.705-3.928 2.809-1.256 1.185 2.13 3.403 1.428 4.982-1.106 2.49-4.187 2.527-8.75 1.268m0-8.75c-.92-.92-2.256-1.494-2.5-1.25-1.492 1.492 1.131 4.434 2.5 3.75 1.958-.98 1.744-3.75-1.25-3.75" fill="none" stroke="#000" stroke-width=".375" stroke-linecap="round" stroke-linejoin="round" pathLength="1" stroke-dasharray="1" stroke-dashoffset="1"><animate attributeName="stroke-dashoffset" to="0" dur="5.0s" fill="freeze" repeatCount="indefinite"/></path><path d="M46.25 198.75c2.584-7.752 2.5-13.323 2.5-21.25m0 0c-1.08-.54-3.533-1.85-3.75-2.5-1.296-3.889 2.984-7.883 6.25-6.25 2.387 1.194 1.598 6.7-2.5 8.75m0 0c.994 1.122 1.583 2.828 2.983 3.366 1.331.513 3.43.587 4.239-.588.795-1.154-.596-2.743-1.022-4.078-.14-.436-.902-.81-.664-1.2.76-1.248 2.982-1.54 3.214-2.982.243-1.511-1.178-2.857-2.077-4.095-.306-.422-1.292-.185-1.402-.694-.286-1.335 1.079-2.906.38-4.079-.749-1.253-2.488-1.973-3.946-1.9-1.537.077-3.33.915-4.003 2.298-.571 1.174 1.941 2.821 1.048 3.773-.764.813-1.296-2.335-2.411-2.321-1.48.019-3.082 1.072-3.739 2.4-.68 1.377-.539 3.298.276 4.601.687 1.101 2.738.557 3.57 1.553 1.273 1.523-3.187 3.446-2.62 5.349.357 1.197 1.973 2.24 3.191 1.963 1.462-.332 1.989-2.244 2.983-3.366" fill="none" stroke="#000" stroke-width=".375" stroke-linecap="round" stroke-linejoin="round" pathLength="1" stroke-dasharray="1" stroke-dashoffset="1"><animate attributeName="stroke-dashoffset" to="0" dur="5.0s" fill="freeze" repeatCount="indefinite"/></path><path d="M97.5 177.5c2.974 5.947 2.5 11.907 2.5 18.75m-1.25-18.75c-1.25 0-2.537.303-3.75 0-6.051-1.513-5.9-10.07 0-11.25 3.634-.727 6.616 1.464 7.5 5 .59 2.363-.35 5-2.5 5m0 1.25c1.9.092 4.064 1.25 5.697.276 1.64-.977 3.138-3.363 2.488-5.157-.672-1.854-5.157-.653-5.304-2.619-.133-1.771 4.057-.41 4.963-1.938.967-1.63.707-4.168-.451-5.67-2.421-3.137-7.587-3.227-11.159.14-.614.579.74 2.968.016 2.532-1.582-.952-1.564-3.74-3.254-4.482-1.874-.823-4.301-.56-6.129.36-4.722 2.376-5.415 8.179-2.603 10.565 1.552 1.317 4.208-.161 6.071.658 1.211.531-2.848-.449-3.957.27-4.935 3.203-4.974 7.386-1.237 10.136 3.318 2.44 9.013 1.388 11.517-2.137 1.062-1.495.561-3.623.842-5.434m3.75 11.25c0-2.565 6.503-4.873 8.75-3.75 1.179.59-.318 2.818-1.25 3.75-.546.546-5.016 2.089-6.25 2.5m-2.5-1.25c-2.462-2.462-7.44.12-6.25 2.5 1.09 2.18 4.38 2.5 7.5 2.5" fill="none" stroke="#000" stroke-width=".375" stroke-linecap="round" stroke-linejoin="round" pathLength="1" stroke-dasharray="1" stroke-dashoffset="1"><animate attributeName="stroke-dashoffset" to="0" dur="5.0s" fill="freeze" repeatCount="indefinite"/></path><path d="M126.25 198.75c0-8.18.24-15.674 1.25-23.75m0 0c-1.242 0-2.539.367-3.725 0-2.794-.865-4.24-4.124-3.361-5.414.641-.941 2.788.148 3.306-.866.522-1.023-1.294-2.075-1.22-3.22.077-1.193.711-2.433 1.635-3.192.913-.751 2.237-1.062 3.414-.96.603.053.651 1.613 1.201 1.361.977-.447.766-2.272 1.748-2.709 1.097-.488 2.657-.425 3.587.335 1.269 1.037.217 3.716 1.553 4.665.921.655 2.636.32 3.112 1.346.755 1.624-2.051 2.55-3.851 5.58-.426.716.463 1.746.101 2.497-1.606 3.33-4.978 4.083-8.75.577m3.75-7.5c-3.436 0-4.519 2.981-3.75 3.75 1.135 1.135 3.75.455 3.75-2.5" fill="none" stroke="#000" stroke-width=".375" stroke-linecap="round" stroke-linejoin="round" pathLength="1" stroke-dasharray="1" stroke-dashoffset="1"><animate attributeName="stroke-dashoffset" to="0" dur="5.0s" fill="freeze" repeatCount="indefinite"/></path><path d="M170 198.75V180m0-1.25c-2.912-.97-5.04-1.33-6.25-3.75-2.596-5.192.956-10.386 7.5-8.75 5.01 1.253 5.804 8.348 0 11.25m-2.5 0c-3.961 7.923-12.16 2.16-6.25-3.75m0-1.25c-2.525-2.525-3.827-6.096-2.5-8.75 1.1-2.2 4.612-3.592 6.25-2.5 2.145 1.43 2.477 2.453 3.75 5m1.25 0c1.707-3.413 2.114-4.038 5-5 3.526-1.175 7.085 1.658 6.25 5-.707 2.827-3.293 3.522-6.25 5m1.25 0c5.033 0 7.058 6.545 3.75 8.75-3.363 2.242-6.985 1.765-10-1.25" fill="none" stroke="#000" stroke-width=".375" stroke-linecap="round" stroke-linejoin="round" pathLength="1" stroke-dasharray="1" stroke-dashoffset="1"><animate attributeName="stroke-dashoffset" to="0" dur="5.0s" fill="freeze" repeatCount="indefinite"/></path><path d="M208.75 198.75V175m1.25 0c-3.656-1.828-4.47-3.897-3.75-7.5.484-2.42 3.404-4.548 5-3.75 1.47.735 1.967 4.458 1.25 6.25-.826 2.066-1.956 3.206-3.75 5m1.25 0c.842.833 1.341 2.512 2.526 2.5 1.185-.012 2.466-1.367 2.474-2.552.008-1.3-2.124-1.781-2.438-3.042-.462-1.853 3.748-1.786 4.505-3.54.447-1.037.574-2.78-.392-3.366-1.195-.725-2.816 1.035-4.149.612-1.74-.552 1.61-4.428.113-5.473-1.065-.743-2.811.112-3.768.99-.975.895-.243 3.034-1.371 3.726-.881.541-1.888-1.322-2.9-1.105-1.332.286-2.711 1.198-3.285 2.435-.538 1.16-.315 2.746.386 3.815.448.683 2.483-.368 2.409.445-.124 1.354-2.38 1.72-2.725 3.036-.922 3.505 1.892 5.574 5.055 3.829 1.239-.684 1.54-2.373 2.31-3.56" fill="none" stroke="#000" stroke-width=".375" stroke-linecap="round" stroke-linejoin="round" pathLength="1" stroke-dasharray="1" stroke-dashoffset="1"><animate attributeName="stroke-dashoffset" to="0" dur="5.0s" fill="freeze" repeatCount="indefinite"/></path><path d="M253.75 198.75c0-8.05-1.25-15.634-1.25-23.75m0 0c-7.327 3.663-12.702-11.2-2.5-13.75 4.103-1.026 8.526 3.397 7.5 7.5-.804 3.214-2.767 3.839-6.25 5m0 0c1.177 1.25 1.814 3.705 3.53 3.75 1.752.046 3.148-1.96 3.873-3.556.315-.693-2.087-1.32-1.461-1.752 1.446-1.002 4.392.713 5.21-.844.79-1.502-1.332-3.173-2.413-4.479-.407-.49-1.81.018-1.808-.619.004-1.758 2.697-3.429 1.819-4.952-.802-1.39-3.302.312-4.81-.237-.447-.163 1.014-1.14.57-1.306-1.715-.642-3.808-1.301-5.466-.527-1.364.637-.557 3.752-2.036 4.03-1.318.249 2.246-3.103 1.14-3.86-6.255-4.283-8.27 8.513-3.759 10.602.766.355.996-3.103.406-2.5-1.092 1.115-2.506 2.702-2.07 4.2.502 1.723 2.467 3.132 4.254 3.3 1.643.154 2.847-1.667 4.271-2.5m0 11.25c2.47-3.705 5.036-7.5 8.75-7.5 1.25 0 .464 2.59 0 3.75-1.42 3.55-2.856 3.987-6.25 6.25m0 0c0-2.401 3.207-4.457 5-6.25" fill="none" stroke="#000" stroke-width=".375" stroke-linecap="round" stroke-linejoin="round" pathLength="1" stroke-dasharray="1" stroke-dashoffset="1"><animate attributeName="stroke-dashoffset" to="0" dur="5.0s" fill="freeze" repeatCount="indefinite"/></path><path d="M293.75 198.75c0-6.051-1.25-11.541-1.25-17.5m0 0c-1.66.417-3.322 1.674-4.98 1.25-1.616-.413-3.267-1.822-3.62-3.452-.343-1.576 1.835-2.837 1.902-4.45.092-2.167-4.557-2.534-4.5-4.704.047-1.735 1.67-3.16 3.036-4.232 1.377-1.08 10.564-6.962 12.26-6.912 1.567.046 3.194 1.122 4.008 2.463.888 1.462.64 3.389.583 5.098-.02.603-1.37 1.41-.805 1.622 1.563.588 3.777-1.165 5.01-.039 1.172 1.07.74 3.282.156 4.756-.635 1.6-2.333 2.53-3.535 3.762-1.454 1.49-1.207 4.227-2.774 5.597-2.335 2.042-4.247 1.239-7.991-2.009m3.75-11.25c-5.276-2.638-8.391 2.859-5 6.25 2.801 2.801 6.365-4.885 3.75-7.5" fill="none" stroke="#000" stroke-width=".375" stroke-linecap="round" stroke-linejoin="round" pathLength="1" stroke-dasharray="1" stroke-dashoffset="1"><animate attributeName="stroke-dashoffset" to="0" dur="5.0s" fill="freeze" repeatCount="indefinite"/></path><path d="M331.25 198.75V180m0 0c-4.82 0-9.259-.809-9.841-3.433-.339-1.524 2.257-2.507 2.323-4.067.049-1.166-1.71-1.73-2.033-2.851-.533-1.847-1.347-4.05-.449-5.748.575-1.088 11.55-5.553 12.538-5.113 1.696.756 1.098 3.7 2.395 5.03.42.429.64-1.426 1.23-1.318 1.845.338 4.429.7 5.055 2.468.575 1.624-2.71 2.751-2.596 4.471.064.964 2.15-1.106 2.863-.454 1.382 1.262 2.342 3.268 2.265 5.138-.156 3.775-3.146 5.593-8.25 5.877-.39.022 1.034-1.162.75-.895-1.17 1.098-1.82 3.205-3.414 3.395-1.585.19-2.724-1.667-4.086-2.5m1.25-12.5c-4.56 4.56-1.396 8.799 2.5 7.5 2.32-.773 1.56-6.25-2.5-6.25m1.25 20c-2.283-1.142-5.167-2.833-6.25-5-1.385-2.77 2.051-3.397 3.75 0" fill="none" stroke="#000" stroke-width=".375" stroke-linecap="round" stroke-linejoin="round" pathLength="1" stroke-dasharray="1" stroke-dashoffset="1"><animate attributeName="stroke-dashoffset" to="0" dur="5.0s" fill="freeze" repeatCount="indefinite"/></path><path d="M375 198.75c0-5.083.931-16.569-2.5-20m0 0c-5.768-2.884-3.649-10 1.25-10 .687 0 3.45 3.803 3.75 5 .562 2.247-.517 3.017-2.5 5m0 0c-2.332 5.192-1.02 6.017-5 2.038-.607-.607-.855-1.572-1.577-2.038-1.3-.839-3.607-.369-4.3-1.753-.718-1.435-.059-3.557 1.075-4.695.803-.806 3.481 1.334 3.408.198-.105-1.613-3.26-1.663-3.606-3.241-.37-1.688.31-4.038 1.836-4.845 1.247-.66 2.4 2.02 3.802 1.862 1.029-.116.911-2.056 1.848-2.498 1.374-.648 3.271-1.363 4.53-.512 1.314.888.339 3.387 1.43 4.539.596.629 1.847-.764 2.582-.305 1.28.799 2.91 2.119 2.722 3.615-.199 1.581-3.126 1.644-3.576 3.173-.263.894 1.709 1.001 2.098 1.848.6 1.304 1.496 3.048.708 4.249-.973 1.483-3.11 2.189-4.883 2.115-1.67-.07-2.898-1.667-4.347-2.5m0 11.25c-2.323-2.323-7.45-6.3-8.75-5-.72.72 1.81 5.905 5 7.5 1.179.59 2.5.833 3.75 1.25m0-6.25c0-3.212.549-1.524 2.5-2.5" fill="none" stroke="#000" stroke-width=".375" stroke-linecap="round" stroke-linejoin="round" pathLength="1" stroke-dasharray="1" stroke-dashoffset="1"><animate attributeName="stroke-dashoffset" to="0" dur="5.0s" fill="freeze" repeatCount="indefinite"/></path><path d="M407.5 198.75v-22.5m0 0c-4.866 0-2.886-8.879 1.25-7.5 4.17 1.39 3.323 8.75-1.25 8.75m0 0c.346 1.18.002 2.877 1.038 3.538 1.01.645 2.738.276 3.539-.615 1.282-1.426.02-3.99.933-5.678.537-.993 1.888-1.615 1.99-2.739.108-1.182-.567-2.455-1.444-3.256-.48-.438-1.764.789-1.944.164-.363-1.258 1.27-2.573.888-3.824-.374-1.227-1.588-2.33-2.843-2.59-1.195-.248-2.592.4-3.427 1.29-.884.942-.699 2.499-1.23 3.677-1.132 2.51-2.312-.097-3.895 1.572-.887.936-1.388 2.45-1.105 3.708.244 1.082 1.838 1.327 2.447 2.253.251.381-.116.914-.064 1.367.108.947-.19 2.194.54 2.806.918.77 2.53 1.26 3.539.615 1.036-.661.692-2.359 1.038-3.538" fill="none" stroke="#000" stroke-width=".375" stroke-linecap="round" stroke-linejoin="round" pathLength="1" stroke-dasharray="1" stroke-dashoffset="1"><animate attributeName="stroke-dashoffset" to="0" dur="5.0s" fill="freeze" repeatCount="indefinite"/></path><path d="M451.25 198.75c0-12.172-.58-5.934 1.25-18.75m0 0c-.899-.3-6.148-2.347-6.25-2.5-1.348-2.022.343-6.781 2.5-7.5 5.466-1.822 10.143 4.857 5 10m0 0c1.153 1.201 1.83 3.263 3.459 3.604 1.179.248 2.717-1.091 2.791-2.293.091-1.49-3.062-2.423-2.419-3.77.714-1.494 4.025.22 4.81-1.237.753-1.397-.46-3.512-1.76-4.423-1.317-.924-3.593.847-4.822-.19-.757-.64 1.839-1.149 2.104-2.104 1.151-4.142-1.941-7.447-4.456-7.087-1.564.224-2.173 2.32-3.01 3.66-.478.764-.043 2.904-.875 2.557-1.545-.643-1.305-3.534-2.874-4.118-1.36-.506-3.417.238-4.078 1.531-.742 1.452-.082 3.47.831 4.821.71 1.05 3.768.316 3.474 1.549-.395 1.656-3.396 1.176-4.444 2.519-3.033 3.888-1.306 6.769 3.29 6.231 1.626-.19 2.82-1.667 4.229-2.5" fill="none" stroke="#000" stroke-width=".375" stroke-linecap="round" stroke-linejoin="round" pathLength="1" stroke-dasharray="1" stroke-dashoffset="1"><animate attributeName="stroke-dashoffset" to="0" dur="5.0s" fill="freeze" repeatCount="indefinite"/></path><path d="M493.75 198.75c0-4.744.297-9.603 0-14.339-.067-1.06.411-2.503-.424-3.161-6.315-4.981-2.317 3.97-6.195-1.988-2.311-3.55-.67-10.292 2.879-13.017 6.028-4.63 14.66 3.275 8.788 11.16-1.678 2.252-3.152 2.155-6.298 2.595m-2.5 0c-6.174 2.373-1.472 4.153-5.604-3.146-.67-1.183-3.015-1.245-3.146-2.599-.173-1.797 1.329-3.41 2.428-4.844.268-.35 1.084.322 1.322-.05.974-1.522.632-3.821 1.949-5.06 2.29-2.154 5.883-3.846 8.925-3.051 1.228.321 1.36 2.353 2.53 2.847 1.046.442 2.527-1.086 3.39-.347 2.302 1.97 2.91 8.94.678 11.278-1.259 1.319-3.837.976-4.878 2.472-.643.924 1.65 2.426.892 3.257-1.287 1.41-3.605 2.211-5.456 1.743-1.453-.367-1.022-3.399-2.479-3.75-1.192-.288-1.64 3.117-2.702 2.5-1.513-.88-1.066-3.333-1.599-5m5 12.5c0-2.681 8.309-5.441 10-3.75.288.288-.321 4.071-1.25 5-.686.686-5.654 2.038-7.5 2.5m-1.25-3.75c-5.17-5.17-10.378-.378-6.25 3.75.686.686 5.654 2.038 7.5 2.5" fill="none" stroke="#000" stroke-width=".375" stroke-linecap="round" stroke-linejoin="round" pathLength="1" stroke-dasharray="1" stroke-dashoffset="1"><animate attributeName="stroke-dashoffset" to="0" dur="5.0s" fill="freeze" repeatCount="indefinite"/></path><path d="M6.25 200c-3.597 0-5.076 2.632-1.488 4.762 1.165.692 3.457-.91 3.79-2.064.35-1.213-2.847-2.345-3.552-2.698m0 5v15m2.5-16.25v17.5m-1.25 0c-7.33 3.47.302 5.731-1.736 10.729-.818 2.006-3.807 5.026-.997 7.28 3.12 2.501 11.936-.971 10.223-5.52-4.696-12.464.56 8.19-3.74-4.13-1.578-4.52 3.968-6.907-1.25-9.609m-2.5 8.75c0 5.746 4.47 0 1.25 0M6.25 207.5v1.25" fill="none" stroke="#000" stroke-width=".375" stroke-linecap="round" stroke-linejoin="round" pathLength="1" stroke-dasharray="1" stroke-dashoffset="1"><animate attributeName="stroke-dashoffset" to="0" dur="5.0s" fill="freeze" repeatCount="indefinite"/></path><path d="M40 203.75c1.78-1.78 5.641-4.178 8.294-3.353 1.875.583 3.07 3.344 5.032 3.353 5.002.024 8.168-5.761 11.674 1.25m-25-1.25c-1.84 1.84-1.563 6.384 1.343 7.5 2.747 1.055 3.067-2.204 4.914-2.497 1.344-.213 3.888 2.239 5.36 2.497 2.626.46 4.26-2.127 5.883-3.75m0-3.75h13.75m-13.75 2.5h15m-1.25-2.5c0-2.108 5.372-1.825 6.193-.057 1.248 2.687-3.724 2.526-4.943 1.307m2.5-2.5v-1.25m1.25 1.25v-1.25M75 205v1.25m1.25-1.25v1.25M77.5 205v1.25m0-1.25v1.25M45 202.5c-4.843 4.843 4.605 0 0 0m-3.75 1.25h20m-20 1.25H65m-18.75 0h15" fill="none" stroke="#000" stroke-width=".375" stroke-linecap="round" stroke-linejoin="round" pathLength="1" stroke-dasharray="1" stroke-dashoffset="1"><animate attributeName="stroke-dashoffset" to="0" dur="5.0s" fill="freeze" repeatCount="indefinite"/></path><path d="M115 200c-.602.602-3.718 2.961-3.734 3.734-.08 3.78 13.015-.64 5.738-3.066L115 200m-2.5 3.75l-8.75 7.5m12.5-7.5c-3.49 2.326-6.726 4.881-10 7.5m-2.5-2.5c-3.442-1.192-7.588-2.92-10.284.853-2.89 4.043.702 3.505-4.116 5.872-4.58 2.25-16.705 4.043-7.572 11.303 3.458 2.748 11.33 2.928 14.508-.564 1.63-1.79.193-5.36 1.986-6.986 3.477-3.154 8.207 1.915 5.478-5.478m-11.25 2.5c-.74 0-3.775 1.165-2.5 2.489 1.684 1.747 4.844-1.395 2.5-3.739m-2.5 3.75c5.484-3.656 10.766-7.594 16.25-11.25M92.5 220c3.98-3.98 8.228-7.588 12.5-11.25m-13.75 12.5c4.721-3.148 9.211-6.596 13.75-10M91.25 220c2.876-2.157 5.758-4.255 8.75-6.25m-8.75 7.5c3.595-3.595 7.28-6.825 11.25-10" fill="none" stroke="#000" stroke-width=".375" stroke-linecap="round" stroke-linejoin="round" pathLength="1" stroke-dasharray="1" stroke-dashoffset="1"><animate attributeName="stroke-dashoffset" to="0" dur="5.0s" fill="freeze" repeatCount="indefinite"/></path><path d="M125 201.25v12.5m1.25-13.75c8.018 0 5 12.42 5 18.75m-3.75 0c-2.682 1.654-7.322 4.72-6.25 8.821.286 1.092 2.1 1.296 2.406 2.382.683 2.427-1.388 4.965-1.156 7.475.575 6.22 7.887 5.223 12.198 3.506 2.85-1.135 7.817-4.71 4.178-8.308-.912-.902-2.73-.374-3.626-1.293-3.19-3.27 7.324-8.962-.166-12.5-1.156-.545-2.556-.055-3.834-.083m-1.25 7.5c-2.975 0-5.888 6.787-2.087 7.5 3.451.647 5.574-4.013 3.337-6.25M127.5 210c0 6.79.408 13.263 1.25 20m1.25-21.25v20m0-20c0 7.96.64 15.816 1.25 23.75m-1.25-20c0 5.036.694 9.998 1.25 15" fill="none" stroke="#000" stroke-width=".375" stroke-linecap="round" stroke-linejoin="round" pathLength="1" stroke-dasharray="1" stroke-dashoffset="1"><animate attributeName="stroke-dashoffset" to="0" dur="5.0s" fill="freeze" repeatCount="indefinite"/></path><path d="M167.5 215c-7.441 2.48-3.07 5.351-4.327 10.865-1.95 8.55-2.247-2.696-3.093 6.395-.747 8.031 12.78 8.4 16.469 3.392 2.971-4.033-.882-6.182-2.147-9.348-2.345-5.867 2.597-7.167-4.402-11.304v-13.75h2.5c0 4.72-1.25 9.063-1.25 13.75" fill="none" stroke="#000" stroke-width=".375" stroke-linecap="round" stroke-linejoin="round" pathLength="1" stroke-dasharray="1" stroke-dashoffset="1"><animate attributeName="stroke-dashoffset" to="0" dur="5.0s" fill="freeze" repeatCount="indefinite"/></path><path d="M208.75 215c-9.993 0-5.017 5.25-6.983 11.466-1.302 4.116-4.023 9.904 2.711 11.034 3.698.62 11.04-.942 10.522-6.058-.605-5.979-2.45.234-2.5-5.975-.038-4.817 6-8.258-1.25-10.467m-5 0l1.25-11.25m2.5 8.75V205m-3.75 0c-8.724 0 2.5-10.116 2.5-1.25m-2.5-2.5v7.5m0-7.5V210m0-5v5m1.25-6.25v8.75m0-5v2.5m-1.25 11.25c-.4.798-1.074 1.76-1.25 2.644-1.89 9.464 11.583-2.644 1.25-2.644" fill="none" stroke="#000" stroke-width=".375" stroke-linecap="round" stroke-linejoin="round" pathLength="1" stroke-dasharray="1" stroke-dashoffset="1"><animate attributeName="stroke-dashoffset" to="0" dur="5.0s" fill="freeze" repeatCount="indefinite"/></path><path d="M245 217.5c-1.825 1.825-4.91 4.074-5 6.978-.117 3.82 6.405 5.354 9.275 4.272 1.268-.478 2.856-3.325 3.808-4.042 1.564-1.176 3.95-.904 5.466-2.141 4.332-3.536.298-7.13-3.2-8.105-4.702-1.31-6.977-.334-10.349 3.038m13.75-3.75c5.72-2.86 11.668-10.466 17.33-12.33 1.332-.438 3.25.79 2.474 2.46-.666 1.435-2.64 1.742-3.939 2.645-3.995 2.777-7.45 5.67-12.115 7.225M250 220c-1.668 1.668-1.458 5.57 1.494 3.506 1.43-1 1.709-3.506-.244-3.506m-3.75 3.75c4.67-2.802 9.22-5.73 13.75-8.75m-12.5 10c3.274-2.619 6.51-5.174 10-7.5m-8.75 8.75c2.392-2.392 4.684-4.373 7.5-6.25" fill="none" stroke="#000" stroke-width=".375" stroke-linecap="round" stroke-linejoin="round" pathLength="1" stroke-dasharray="1" stroke-dashoffset="1"><animate attributeName="stroke-dashoffset" to="0" dur="5.0s" fill="freeze" repeatCount="indefinite"/></path><path d="M285 216.25c-7.901 2.105.197 5.259-1.25 9.884-1.235 3.949-7.923 11.305 2.259 11.366 3.787.023 10.525-1.664 8.554-7.125-.727-2.013-3.921-2.477-4.563-4.52-1.438-4.576 6.595-7.286-2.5-8.355m-1.25 0v-13.75m1.25 13.75V205m-2.5 1.25c-3.244 0 4.43-10.051 3.75-1.863-.078.934-.623 1.236-1.25 1.863" fill="none" stroke="#000" stroke-width=".375" stroke-linecap="round" stroke-linejoin="round" pathLength="1" stroke-dasharray="1" stroke-dashoffset="1"><animate attributeName="stroke-dashoffset" to="0" dur="5.0s" fill="freeze" repeatCount="indefinite"/></path><path d="M326.25 201.25c-.917 0-2.085.243-2.5 1.275-.756 1.877.742 1.806 1.25 2.806 1.296 2.55 0 9.242 0 12.169m1.25-15c4.365 0 2.5 11.093 2.5 15m-5 1.25c-2.424 2.424-4.788 4.612-3.31 8.38.573 1.462 2.963 3.257 2.775 5.19-.295 3.052-4.525 5.967.099 8.494 3.417 1.868 13.617-1.854 12.802-6.796-.727-4.407-6.105-.266-4.846-6.557.867-4.335 1.627-4.8-1.27-8.711m-3.75-12.5c0 9.683-.344 19.188 1.25 28.75m1.25-28.75v30m-1.25-30v26.25" fill="none" stroke="#000" stroke-width=".375" stroke-linecap="round" stroke-linejoin="round" pathLength="1" stroke-dasharray="1" stroke-dashoffset="1"><animate attributeName="stroke-dashoffset" to="0" dur="5.0s" fill="freeze" repeatCount="indefinite"/></path><path d="M366.25 201.25c-2.202 0-1.035 1.465 0 2.5m1.25-3.75c2.475 0 2.5 1.704 2.5 3.75m-3.75 0l1.25 1.25m1.25 0v12.5M370 205v10m-2.5 0c-2.033 1.082-6.065 3.188-6.25 6.017-.1 1.526 2.384 3.885 2.49 5.263.238 3.09-2.996 5.516-.035 8.63 2.621 2.757 9.004 1.775 10.045-2.106 1.002-3.735-1.886-4.744-.236-8.581 2.07-4.816 1.467-6.742-2.264-10.473m-1.25 12.5c-1.4 0-3.93 2.045-2.5 3.705 1.144 1.327 3.058-1.897 1.25-3.705m0-22.5v15" fill="none" stroke="#000" stroke-width=".375" stroke-linecap="round" stroke-linejoin="round" pathLength="1" stroke-dasharray="1" stroke-dashoffset="1"><animate attributeName="stroke-dashoffset" to="0" dur="5.0s" fill="freeze" repeatCount="indefinite"/></path><path d="M410 215c-6.592 1.781-2.818 3.052-3.893 7.786-.538 2.368-3.988 3.455-5.117 5.233-4.466 7.037 4.172 11.502 10.049 10.731 8.844-1.16 4.761-5.39 4.25-10.673-.527-5.439 2.528-1.128 3.461-5.998.79-4.116-4.846-6.22-7.5-7.079M410 226.25c-4.019 0-4.746 4.911-1.263 4.987 2.625.058 2.459-3.791 1.263-4.987m-1.25 1.25c0-6.539 4.353-14.925 6.25-21.25M410 225c1.548-4.644 3.182-9.205 5-13.75M410 225c1.425-4.274 3.226-8.36 5-12.5m-3.75 10c.977-3.907 2.255-7.512 3.75-11.25m-1.25 0c0-1.743 3.477-7.942 6.062-6.25 1.783 1.167-1.69 5.316-2.312 6.25" fill="none" stroke="#000" stroke-width=".375" stroke-linecap="round" stroke-linejoin="round" pathLength="1" stroke-dasharray="1" stroke-dashoffset="1"><animate attributeName="stroke-dashoffset" to="0" dur="5.0s" fill="freeze" repeatCount="indefinite"/></path><path d="M443.75 200c-3.515 0-2.28 2.941-1.25 5m0-3.75c2.461 0 2.5.039 2.5 2.5m-2.5 0L445 205m-1.25 0v11.25m1.25-10l1.25 11.25m-2.5-1.25c-.527.527-3.521 3.36-3.75 4.213-.737 2.746 1.13 3.002 1.91 5.198 1.312 3.687-2.847 10.275 3.797 11.839 3.006.707 9.089-2.338 8.043-6.225-4.196-15.6.006 8.74-3.75-3.48-1.421-4.625 3.155-5.89-1.25-10.295" fill="none" stroke="#000" stroke-width=".375" stroke-linecap="round" stroke-linejoin="round" pathLength="1" stroke-dasharray="1" stroke-dashoffset="1"><animate attributeName="stroke-dashoffset" to="0" dur="5.0s" fill="freeze" repeatCount="indefinite"/></path><path d="M490 215c-7.358 2.356-4.435 5.122-7.673 10.647-1.333 2.275-3.4 3.49-3.577 6.405-.312 5.12 6.479 8.15 10.748 7.948 8.19-.386 4.145-6.491 3.735-11.035-.392-4.334 6.97-9.087.374-12.161-1.102-.514-2.405-.37-3.607-.554 1.222-3.055 2.603-11.354 4.896-13.438 1.138-1.034 3.923.462 3.854 1.93-.15 3.159-4.74 9.737-6.25 12.758m3.75-12.5c-1.859 3.718-3.684 7.303-5 11.25m5-13.75c-2.087 4.174-3.866 7.965-5 12.5m3.75-10c-.965 2.895-1.76 5.79-2.5 8.75m2.5-7.5l-2.5 6.25m-5 11.25c-3.92 7.84 6.038 3.538 1.25-1.25m-1.25 2.5c0-3.983 2.19-7.61 3.75-11.25m-5 13.75l3.75-11.25m-2.5 11.25c1.535-3.838 3.151-7.553 5-11.25" fill="none" stroke="#000" stroke-width=".375" stroke-linecap="round" stroke-linejoin="round" pathLength="1" stroke-dasharray="1" stroke-dashoffset="1"><animate attributeName="stroke-dashoffset" to="0" dur="5.0s" fill="freeze" repeatCount="indefinite"/></path><path d="M1.25 242.5c0 7.138-2.995 15.52-1.25 22.5.606 2.425 5.009-.208 7.5 0 2.936.245 5.814 1.005 8.75 1.25 7.628.636 6.815.04 7.5-7.5.226-2.49 0-5 0-7.5 0-9.785.518-11.912-8.75-11.25-3.763.269-7.5.833-11.25 1.25m-1.25 0c1.842 3.683 3.778 5.785 7.5 6.25 6.246.78 12.5-1.567 12.5-6.25M25 245c0-3.074 10.069-1.147 12.5 2.5 5.239 7.858-8.412 20.338-15 13.75m2.5-15c7.728-7.728 15.065 6.711 7.5 11.25-2.531 1.519-5.376 2.124-7.5 0" fill="none" stroke="#000" stroke-width=".375" stroke-linecap="round" stroke-linejoin="round" pathLength="1" stroke-dasharray="1" stroke-dashoffset="1"><animate attributeName="stroke-dashoffset" to="0" dur="5.0s" fill="freeze" repeatCount="indefinite"/></path><path d="M40 246.25c0 7 .615 14.269 1.25 21.25.943 10.377 13.705 15.045 20 8.75 1.6-1.6 3.566-7.604 3.75-10 .716-9.308-.029-12.73-1.25-22.5M41.25 245c5.951 5.951 18.03 5.191 21.25-1.25M41.25 245c6.523-6.523 17.805-6.89 21.25 0m1.25 6.25c2.187-2.187 5.716-1.517 8.75 0 8.31 4.155 7.743 13.628 0 17.5-2.85 1.425-6.552 2.198-8.75 0m0-16.25c4.295 0 6.333.528 8.75 3.75 1.785 2.38 1.864 7.352 0 8.75-1.973 1.48-4.758 1.25-7.5 1.25" fill="none" stroke="#000" stroke-width=".375" stroke-linecap="round" stroke-linejoin="round" pathLength="1" stroke-dasharray="1" stroke-dashoffset="1"><animate attributeName="stroke-dashoffset" to="0" dur="5.0s" fill="freeze" repeatCount="indefinite"/></path><path d="M80 243.75c0 7.402.114 18.068 4.962 22.424 3.884 3.49 14.145 3.68 17.567.018 3.767-4.03 5.834-18 3.033-22.568-1.252-2.043-5.398-3.307-8.177-3.624-4.77-.544-9.01.778-13.635 2.5m0 0c0 3.662 3.04 6.858 6.25 7.5 5.71 1.142 9.851-.317 15-3.75m1.25 0c5.47-5.47 13.227.057 11.25 5-1.777 4.443-7.288 7.5-12.5 7.5m1.25-11.25c1.34 0 3.76-.62 5 0 2.308 1.154.55 7.5-5 7.5" fill="none" stroke="#000" stroke-width=".375" stroke-linecap="round" stroke-linejoin="round" pathLength="1" stroke-dasharray="1" stroke-dashoffset="1"><animate attributeName="stroke-dashoffset" to="0" dur="5.0s" fill="freeze" repeatCount="indefinite"/></path><path d="M132.5 252.5c-.833 2.917-1.764 5.807-2.5 8.75-.515 2.061-2.882 4.89-1.25 6.25 2.392 1.993 15.31 0 17.5 0 .3 0 1.04-8.32 1.25-10 .264-2.108 2.752-4.748 1.25-6.25-2.576-2.576-10.754-1.25-15-1.25m0 0c0-5.694 9.648-6.954 13.75 1.25m1.25 1.25c8.076-4.038 13.623 2.066 10 7.5-2.032 3.048-6.85 2.5-11.25 2.5m1.25-6.25c3.432-3.432 7.19-.32 6.25 2.5-.365 1.094-4.009 1.25-6.25 1.25m-10-10c3.108-3.108-.442-6.617 1.25-10m3.75 11.25c2.434-2.434 0-1.104 0-5 0-.932 1.25-1.568 1.25-2.5m1.25 7.5c1.329-2.658 2.5-4.506 2.5-7.5" fill="none" stroke="#000" stroke-width=".375" stroke-linecap="round" stroke-linejoin="round" pathLength="1" stroke-dasharray="1" stroke-dashoffset="1"><animate attributeName="stroke-dashoffset" to="0" dur="5.0s" fill="freeze" repeatCount="indefinite"/></path><path d="M160 246.25c6.357 4.617 11.606 6.534 17.883 3.495 1.95-.945 4.366-1.972 5.124-4.002.578-1.55-.566-3.627-1.922-4.575-3.916-2.738-14.956-.955-18.611 2.608-3.49 3.403-1.913 5.93-1.334 11.924.36 3.73-.092 10.143 2.015 12.128 3.125 2.942 15.595 3.568 19.075.99 1.673-1.24 2.41-3.549 2.77-5.6 1.004-5.714-1.25-13.81-1.25-19.468m1.25 5c2.184-2.184 1.149-1.25 3.75-1.25 4.01 0 9.407 1.377 10 3.75.916 3.664-2.6 8.142-6.25 8.75-2.757.46-5.323.927-7.5-1.25m0-6.25c.833-.417 1.586-1.067 2.5-1.25 9.762-1.952 8.53 6.25 0 6.25" fill="none" stroke="#000" stroke-width=".375" stroke-linecap="round" stroke-linejoin="round" pathLength="1" stroke-dasharray="1" stroke-dashoffset="1"><animate attributeName="stroke-dashoffset" to="0" dur="5.0s" fill="freeze" repeatCount="indefinite"/></path><path d="M216.25 258.75c-3.9-1.95-10.135 1.673-8.75 3.75 1.337 2.006 4.113 3.575 6.25 5M215 255c-2.686 0-6.128-.655-8.75 0-6.37 1.593-7.557 9.346-3.75 11.25 2.357 1.179 5 1.667 7.5 2.5m5-15c-2.262 4.803-4.994 14.008-3.75 18.957 1.152 4.582 8.094 7.19 13.497 5.71 8.174-2.238 11.16-18.647 4.51-24.16-3.031-2.513-7.432-1.757-11.757-1.757m0-1.25c0-2.083-.932-4.387 0-6.25 1.777-3.554 3.719-2.531 1.25-5m5 12.5c0-1.662.82-5.783 1.25-7.5.549-2.195 2.5-1.872 2.5-3.75m3.75 12.5c1.02-3.058 3.23-7.082 2.5-10-.226-.904-.955-1.616-1.25-2.5-.132-.395 0-.833 0-1.25m-18.75 13.75c0 2.124 1.725 3.244 3.75 3.75 5.074 1.268 11.182.068 15-3.75m-21.25 5c2.493 2.493 8.846 1.25 12.5 1.25" fill="none" stroke="#000" stroke-width=".375" stroke-linecap="round" stroke-linejoin="round" pathLength="1" stroke-dasharray="1" stroke-dashoffset="1"><animate attributeName="stroke-dashoffset" to="0" dur="5.0s" fill="freeze" repeatCount="indefinite"/></path><path d="M241.25 245c2.393 4.785 6.804 6.25 12.5 6.25 3.454 0 5.903.458 8.75-1.25 1.277-.766 3.75-3.938 3.75-5 0-1.594-5.227-4.675-7.5-5-6.416-.917-12.947.447-17.5 5m0 0c0 7.308.052 14.064 1.25 21.25m23.75-22.5c0 7.676-1.25 14.867-1.25 22.5m-21.25 2.5c6.015 6.015 17.49 5.01 23.75-1.25m-2.5-15c1.667-1.667 2.892-3.946 5-5 1.119-.56 3.956.206 5 1.25 2.787 2.787 3.533 9.456 1.25 12.5-1.714 2.286-6.55 2.5-10 2.5m-1.25-7.5c1.857-1.857 4.107-3.214 6.25-2.5 1.118.373 2.5 1.321 2.5 2.5 0 2.326-4.22 3.907-7.5 5" fill="none" stroke="#000" stroke-width=".375" stroke-linecap="round" stroke-linejoin="round" pathLength="1" stroke-dasharray="1" stroke-dashoffset="1"><animate attributeName="stroke-dashoffset" to="0" dur="5.0s" fill="freeze" repeatCount="indefinite"/></path><path d="M280 245c2.756 2.756 5.886 2.5 10 2.5 5.206 0 9.084.916 12.5-2.5 1.887-1.887-3.595-4.735-6.25-5-6.609-.66-11.406.156-16.25 5m0 0c0 7.557.144 21.394 5 26.25 2.454 2.454 10.39 2.24 13.75 0 2.022-1.348 3.527-5.85 3.75-8.75.675-8.778-.125-12.25-1.25-21.25m1.25 5c3.401-6.803 12.314-5.745 13.75 0 2.028 8.113-3.485 15-12.5 15m-1.25-13.75c6.622-6.622 13.854-3.022 12.5 3.75-.687 3.435-6.213 5.607-10 7.5" fill="none" stroke="#000" stroke-width=".375" stroke-linecap="round" stroke-linejoin="round" pathLength="1" stroke-dasharray="1" stroke-dashoffset="1"><animate attributeName="stroke-dashoffset" to="0" dur="5.0s" fill="freeze" repeatCount="indefinite"/></path><path d="M320 242.5c0 3.75-.373 7.519 0 11.25.5 5.01 4.84 9.14 10 10 7.967 1.328 15.355-6.045 16.25-15 .249-2.488.354-5.025 0-7.5-.083-.583-.833-.833-1.25-1.25m-23.75 1.25c8.838 2.21 13.358 2.286 22.5 0m-23.75 0c7.169-3.584 18.552-5.198 23.75 0m1.25 2.5c3.014-1.507 7.75-4 10-2.5 2.99 1.993 4.978 6.931 3.75 10-1.472 3.679-7.965 6.25-12.5 6.25m0-12.5c4.608 0 7.095 2.464 6.25 5-.53 1.59-4.51 2.88-6.25 3.75" fill="none" stroke="#000" stroke-width=".375" stroke-linecap="round" stroke-linejoin="round" pathLength="1" stroke-dasharray="1" stroke-dashoffset="1"><animate attributeName="stroke-dashoffset" to="0" dur="5.0s" fill="freeze" repeatCount="indefinite"/></path><path d="M361.25 245c-.084 5.867-.948 11.56-1.244 17.44-.098 1.942-1.054 4.196-.006 5.834.923 1.443 3.15 1.453 4.84 1.726 4.6.744 14.644.569 16.41-2.557 1.463-2.59.431-14.645 0-17.502-.259-1.715-.036-4.248-1.625-4.941-1.767-.77-3.6 1.422-5.48 1.842-3.301.738-9.853.65-10.997-1.194-.79-1.272.342-3.297 1.514-4.23 1.505-1.196 3.674-1.274 5.592-1.418 5.347-.401 5.064.008 9.746 3.75m1.25 7.5c3.039-3.039 7.096-4.442 11.25-3.75 3.73.622 7.189 4.995 6.25 8.75-1.082 4.33-7.174 6.74-12.5 7.5-2.648.378-2.588-.044-5-1.25m1.25-8.75c2.68-2.68 5.825-3.67 8.75-2.5 2.163.865 3.59 5.16 2.5 6.25-2.681 2.681-8.367 2.5-12.5 2.5" fill="none" stroke="#000" stroke-width=".375" stroke-linecap="round" stroke-linejoin="round" pathLength="1" stroke-dasharray="1" stroke-dashoffset="1"><animate attributeName="stroke-dashoffset" to="0" dur="5.0s" fill="freeze" repeatCount="indefinite"/></path><path d="M400 245c4.585 4.585 9.932 5.702 16.25 5 3.474-.386 8.652-2.305 10-5 .41-.82-.22-1.814-1.25-2.5-1.77-1.18-5.126-2.284-7.5-2.5-6.759-.614-11.989-1.022-15 5m-1.25 0c1.475 7.376-1.247 21.253 3.75 26.25 3.328 3.328 17.81 4.69 21.25 1.25 2.083-2.083 1.087-5.808 1.25-8.75.277-4.992.333-10.011 0-15-.088-1.315-.833-2.5-1.25-3.75m1.25 7.5c4.745-4.745 12.061.066 10 6.25-1.259 3.777-4.336 5-8.75 5m0-7.5c2.03-2.03 5-.545 5 1.25 0 1.193-3.357 2.5-5 2.5" fill="none" stroke="#000" stroke-width=".375" stroke-linecap="round" stroke-linejoin="round" pathLength="1" stroke-dasharray="1" stroke-dashoffset="1"><animate attributeName="stroke-dashoffset" to="0" dur="5.0s" fill="freeze" repeatCount="indefinite"/></path><path d="M440 246.25c0 1.667-.166 3.342 0 5 .252 2.522 1.056 4.973 1.25 7.5.282 3.665-.045 9.955 1.25 11.25 1.473 1.473 4.167 0 6.25 0h8.75c2.21 0 2.517.599 3.75-1.25 4.656-6.984 2.848-16.455 0-25m-21.25 2.5c2.67 5.341 9.253 6.213 15 3.75 3.302-1.415 7.203-5.595 6.25-7.5-1.119-2.238-5.43-2.915-8.75-2.5-4.374.547-6.694 1.694-10 5m21.25 3.75c0-5.85 9.073-8.427 13.75-3.75 7.977 7.977-1.093 21.953-12.5 16.25m1.25-11.25c1.983-1.983 2.753-3.062 5-2.5 3.097.774 6.027 4.197 5 6.25-1.82 3.642-5.12 3.75-10 3.75" fill="none" stroke="#000" stroke-width=".375" stroke-linecap="round" stroke-linejoin="round" pathLength="1" stroke-dasharray="1" stroke-dashoffset="1"><animate attributeName="stroke-dashoffset" to="0" dur="5.0s" fill="freeze" repeatCount="indefinite"/></path><path d="M480 245c0 7.397.134 13.997 1.25 21.25.684 4.448 1.65 9.016 5 11.25 5.328 3.552 12.853.192 15-6.25 2.708-8.125 3.348-17.856 1.25-26.25m-20 1.25c5.385 5.385 15.888 5.658 22.5 1.25m-22.5-2.5c6.532-6.532 14.454-6.796 21.25 0m1.25 2.5c2.508 0 4.709-.291 6.25 1.25 3.5 3.5 5.239 9.761 2.5 12.5-2.244 2.244-5.804 2.571-8.75 3.75m0-12.5c2.724-2.724 8.353-.06 7.5 2.5-1.014 3.043-3.218 4.734-6.25 6.25" fill="none" stroke="#000" stroke-width=".375" stroke-linecap="round" stroke-linejoin="round" pathLength="1" stroke-dasharray="1" stroke-dashoffset="1"><animate attributeName="stroke-dashoffset" to="0" dur="5.0s" fill="freeze" repeatCount="indefinite"/></path><path d="M8.75 291.25c0-3.313 6.913-7.124 11.25-8.75 8.501-3.188 15.831-.006 18.75 8.75M10 290c5.476 5.476 18.818 2.49 27.5 1.25m-28.75 0c-4.826 0-3.113-2.034-6.25-1.25-1.49.373-2.01 2.745 0 3.75 2.023 1.011 5.24-.12 7.5-1.25m2.5 1.25c0 3.537 2.5 6.464 2.5 0m16.25-1.25c0 2.524 2.5 4.269 2.5 0m1.25-1.25c1.588 3.176 6.117 2.367 2.5-1.25" fill="none" stroke="#000" stroke-width=".375" stroke-linecap="round" stroke-linejoin="round" pathLength="1" stroke-dasharray="1" stroke-dashoffset="1"><animate attributeName="stroke-dashoffset" to="0" dur="5.0s" fill="freeze" repeatCount="indefinite"/></path><path d="M51.25 290c0-1.667-.745-3.51 0-5 3.444-6.888 17.778-6.944 21.25 0 .817 1.634.229 5.264-1.25 6.25-5.367 3.578-17.287 2.926-20-2.5m0 1.25c-.417 0-.855.132-1.25 0-.884-.295-1.596-1.024-2.5-1.25-2.172-.543-5.312.624-6.25 2.5-1.25 2.5 7.99 5.76 11.25 2.5m0-1.25c0 1.321-2.212 4.038-1.25 5 .904.904 4.73-.98 6.25-2.5m11.25-1.25c3.269 6.538 7.545 3.84 5-1.25m0-2.5c1.952 1.952 5.583 1.166 5 0-.928-1.857-2.614-1.25-5-1.25" fill="none" stroke="#000" stroke-width=".375" stroke-linecap="round" stroke-linejoin="round" pathLength="1" stroke-dasharray="1" stroke-dashoffset="1"><animate attributeName="stroke-dashoffset" to="0" dur="5.0s" fill="freeze" repeatCount="indefinite"/></path><path d="M96.25 287.5c-10.658 3.346-11.553 19.281-3.728 22.5 7.412 3.049 17.04-5.117 14.978-14.614-1.07-4.925-4.693-7.367-10-9.136m-1.25 0c0-1.667-.527-3.419 0-5 .337-1.01 1.679-1.66 2.5-1.25 1.857.928 1.25 2.614 1.25 5m6.25 5c0-2.674 7.316-5.184 8.75-3.75.288.288-.321 4.071-1.25 5-1.062 1.062-2.5 1.667-3.75 2.5m-1.25 10c9.677 4.839 1.587 14.425-3.75 3.75M90 290c-1.986-1.986-4.94-3.14-7.5-2.5-1.794.448-2.972 1.556-2.5 2.5.932 1.863 3.267 2.594 5 3.75m1.25 10c-1.34 1.34-4.38 3.14-5 5-1.211 3.634 5.799 5.903 8.75 0" fill="none" stroke="#000" stroke-width=".375" stroke-linecap="round" stroke-linejoin="round" pathLength="1" stroke-dasharray="1" stroke-dashoffset="1"><animate attributeName="stroke-dashoffset" to="0" dur="5.0s" fill="freeze" repeatCount="indefinite"/></path><path d="M128.75 290c6.785-10.178 18.355-9.54 23.75 1.25M128.75 290c0 2.888 2.983 2.933 6.25 3.75 7.05 1.763 12.623 2.377 17.5-2.5m0-1.25c.833 0 1.692-.202 2.5 0 6.036 1.509 6.62 5-1.25 5m0 0c0 7.217-3.75 5.51-3.75 1.25m0 0c-2.232 2.232-3.75 2.653-3.75 1.25m-17.5-2.5c-4.306 8.612-9.8-3.75-1.25-3.75m-1.25 0c-2.787-1.393-4.072-2.217-5-5-.52-1.56 1.224-3.138 2.5-2.5 1.581.79 2.5 2.5 3.75 3.75m0 0c0 2.184-.05 1.2 1.25 2.5m3.75-6.25c0 4.525 5 5.3 5 0m5 0c-1.826 3.651 3.75 6.661 3.75 1.25m-10 5c-1.888 1.888-.54 4.29 2.5 1.25m8.75 0c-2.7 2.7 1.25 5.438 1.25 1.25" fill="none" stroke="#000" stroke-width=".375" stroke-linecap="round" stroke-linejoin="round" pathLength="1" stroke-dasharray="1" stroke-dashoffset="1"><animate attributeName="stroke-dashoffset" to="0" dur="5.0s" fill="freeze" repeatCount="indefinite"/></path><path d="M175 286.25c-12.095 2.274-13.594 21.352-4.127 25.873 5.787 2.763 15.216-1.73 16.627-8.24 1.766-8.15-3.702-15.807-12.5-18.883m-2.5 1.25c0-7.802 6.25-7.745 6.25-1.25m3.75 3.75c5.935-5.935 9.389-.32 3.75 2.5m-1.25 15c.54 1.08 1.85 3.533 2.5 3.75 2.413.804 4.342-1.316 3.75-2.5-.782-1.564-3.244-2.872-5-3.75m-20-1.25c-3.184 0-6.175 5.15-5 7.5.508 1.015 4.47-.72 6.25-2.5m-1.25-17.5c-4.404-4.404-.913-8.413 2.5-5" fill="none" stroke="#000" stroke-width=".375" stroke-linecap="round" stroke-linejoin="round" pathLength="1" stroke-dasharray="1" stroke-dashoffset="1"><animate attributeName="stroke-dashoffset" to="0" dur="5.0s" fill="freeze" repeatCount="indefinite"/></path><path d="M210 288.75c0-4.44 6.093-8.013 11.25-8.75 7.869-1.124 13.66 2.32 17.5 10m-27.5-1.25c0 2.978 3.86 3.49 7.5 3.75 8.498.607 9.208.34 18.75-1.25m-26.25-2.5c-3.526 0-5.575-2.044-8.75-1.25-1.73.433-2.116 3.59 0 5 2.713 1.809 4.368 1.566 7.5 0m2.5 0c0 1.318-1.25 2.432-1.25 3.75 0 .023 2.896-1.646 3.75-2.5m12.5 0c0 2.965 2.5 2.965 2.5 0m5-1.25c0 3.097 2.5 3.43 2.5 0" fill="none" stroke="#000" stroke-width=".375" stroke-linecap="round" stroke-linejoin="round" pathLength="1" stroke-dasharray="1" stroke-dashoffset="1"><animate attributeName="stroke-dashoffset" to="0" dur="5.0s" fill="freeze" repeatCount="indefinite"/></path><path d="M250 288.75c-12.398 2.909-10.846 20.958.67 22.5 4.938.661 8.656-3.04 9.33-8.213.916-7.026-3.116-14.634-10-16.787m-2.5 1.25c0-1.667-.404-3.383 0-5 1.219-4.876 5.334-4.581 6.25 0 .245 1.226 0 2.5 0 3.75m5 6.25c2.791-2.791 5.516-.516 2.5 2.5m-17.5-3.75c-2.436-2.436-5.715.535-2.5 3.75m2.5 15c-4.62 4.62-1.518 6.518 2.5 2.5m12.5-3.75c4.006 4.006 1.53 6.39-3.75 3.75m-7.5 1.25c1.934 3.868.971 4.307 2.5 1.25" fill="none" stroke="#000" stroke-width=".375" stroke-linecap="round" stroke-linejoin="round" pathLength="1" stroke-dasharray="1" stroke-dashoffset="1"><animate attributeName="stroke-dashoffset" to="0" dur="5.0s" fill="freeze" repeatCount="indefinite"/></path><path d="M287.5 290c0-13.351 23.75-14.216 23.75 0m0 0c-7.684 0-15.002.25-22.5-1.25m2.5 0c-5.207 2.603-.142 5.285 2.5 0m0 0c0 4.704 3.75 7.037 3.75 0m10 0c1.315 2.63 5.523 3.023 2.5 0m1.25 0c2.628 5.256 5.095 3.845 1.25 0m1.25-1.25c1.25-.417 2.45-1.033 3.75-1.25 5.767-.961 5.743 2.94 2.5 3.75-1.617.404-3.333 0-5 0m-25-2.5c-7.473-2.491-8.086 1.25-1.25 1.25" fill="none" stroke="#000" stroke-width=".375" stroke-linecap="round" stroke-linejoin="round" pathLength="1" stroke-dasharray="1" stroke-dashoffset="1"><animate attributeName="stroke-dashoffset" to="0" dur="5.0s" fill="freeze" repeatCount="indefinite"/></path><path d="M328.75 291.25c7.326-14.651 24.14-13.827 28.75 0m-27.5 0c0 2.547 2.383 3.423 5 3.75 7.21.901 15.063 1.187 20-3.75m-25 0c-2.186-2.186-3.777-3.324-6.25-2.5-2.142.714-3.923 3.577-3.75 3.75 2.09 2.09 5.552 1.599 8.75 0m3.75 1.25c-2.7 2.7 1.25 5.438 1.25 1.25m18.75-1.25c0 3.43 2.5 3.097 2.5 0m3.75-2.5c0 4.528 3.537 2.287 1.25 0" fill="none" stroke="#000" stroke-width=".375" stroke-linecap="round" stroke-linejoin="round" pathLength="1" stroke-dasharray="1" stroke-dashoffset="1"><animate attributeName="stroke-dashoffset" to="0" dur="5.0s" fill="freeze" repeatCount="indefinite"/></path><path d="M368.75 291.25c-3.72 2.534-6.343 5.196-7.28 9.34-2.689 11.892 7.16 20.294 16.168 15.984C389.085 311.1 384.531 290 370 290m1.25 0c-4.771-4.771-1.278-11.26 2.5-10 2.424.808 2.642 5.824 1.25 10m6.25 3.75c4.372-4.372 6.957-1.957 2.5 2.5m-1.25 15c2.229 4.457-.343 5.907-2.5 3.75m-17.5-2.5c-.59 1.179-2.429 3.16-1.25 3.75 1.418.709 3.75.7 3.75-1.25m-1.25-18.75c-2.741 0-3.505-3.872-1.25-5 .639-.32 2.47 1.22 3.75 2.5" fill="none" stroke="#000" stroke-width=".375" stroke-linecap="round" stroke-linejoin="round" pathLength="1" stroke-dasharray="1" stroke-dashoffset="1"><animate attributeName="stroke-dashoffset" to="0" dur="5.0s" fill="freeze" repeatCount="indefinite"/></path><path d="M410 291.25c0-13.42 21.429-15.535 25-1.25.735 2.942-4.69 5.767-10 6.25-6.324.575-10.909.682-13.75-5m0-1.25c-3.128-1.564-8.09-1.98-8.75 0-.911 2.733 4.173 5.827 8.75 1.25m2.5 2.5c-6.488 6.488 3.75 11.57 3.75 1.25m15 0c0 5.149 7.285 3.535 2.5-1.25m1.25-2.5c4.594 0 4.013.493 0 2.5" fill="none" stroke="#000" stroke-width=".375" stroke-linecap="round" stroke-linejoin="round" pathLength="1" stroke-dasharray="1" stroke-dashoffset="1"><animate attributeName="stroke-dashoffset" to="0" dur="5.0s" fill="freeze" repeatCount="indefinite"/></path><path d="M450 287.5c0-2.436 3.733-4.991 6.25-6.25 5.917-2.958 14.7-1.852 17.5 3.75M450 286.25c9.393 4.696 17.198 5.302 23.75-1.25M450 287.5c-2.429 0-4.75-.25-6.25 1.25-.273.273.132 2.127 1.25 2.5 1.976.659 4.167 0 6.25 0m2.5 0c-1.956 1.956-1.104 6.25 0 6.25.736 0 3.147-3.794 3.75-5m7.5-1.25c1.25 1.25 2.169 2.96 3.75 3.75 2.784 1.392 2.99-3.505 0-5m3.75-1.25c6.02 2.006 7.405 1.155 3.75-2.5m1.25-1.25c1.318 0 2.432-1.25 3.75-1.25 1.566 0-3.003 2.5-3.75 2.5" fill="none" stroke="#000" stroke-width=".375" stroke-linecap="round" stroke-linejoin="round" pathLength="1" stroke-dasharray="1" stroke-dashoffset="1"><animate attributeName="stroke-dashoffset" to="0" dur="5.0s" fill="freeze" repeatCount="indefinite"/></path><path d="M500 288.75c-5.4 0-10.343 1.935-12.5 6.25-2.791 5.582-1.02 15.115 3.75 17.5 3.494 1.747 11.679-.298 13.75-3.75 3.595-5.992.726-14.274-5-20m0 0c4.426-8.852-11.273-10.045-6.25 0m-5 5c-2.056-2.056-2.6-3.3-5-2.5-1.78.593-3.355 3.717-2.5 5 1.034 1.55 3.333 1.667 5 2.5m0 8.75c-6.347 0-7.831 7.39-3.75 8.75 2.28.76 4.1-1.6 6.25-3.75m17.5-20c5.16-5.16 11.517-.8 10 3.75-.217.65-3.364 1.955-5 2.5m-1.25 7.5c3.544 1.181 6.721 1.884 7.5 5 .96 3.841-6.373 7.377-11.25 2.5" fill="none" stroke="#000" stroke-width=".375" stroke-linecap="round" stroke-linejoin="round" pathLength="1" stroke-dasharray="1" stroke-dashoffset="1"><animate attributeName="stroke-dashoffset" to="0" dur="5.0s" fill="freeze" repeatCount="indefinite"/></path></svg>